# Made in Blockbench 5.1.4
mtllib materials.mtl

o cylinder
v 0 -1.3792758822198325e-16 -0.5
v 0 8.411701670304806e-17 0.5
v 0.05177669529663653 -0.1250000000000001 -0.5
v 0.05177669529663653 -0.12499999999999989 0.5
v 0.125 -0.05177669529663703 -0.5
v 0.125 -0.05177669529663681 0.5
v 0.125 0.051776695296636734 -0.5
v 0.125 0.051776695296636956 0.5
v 0.05177669529663653 0.12499999999999988 -0.5
v 0.05177669529663653 0.1250000000000001 0.5
v -0.05177669529663653 0.12499999999999989 -0.5
v -0.05177669529663653 0.1250000000000001 0.5
v -0.125 0.05177669529663683 -0.5
v -0.125 0.05177669529663705 0.5
v -0.125 -0.05177669529663705 -0.5
v -0.125 -0.05177669529663683 0.5
v -0.05177669529663653 -0.1250000000000001 -0.5
v -0.05177669529663653 -0.12499999999999989 0.5
vt 0.74324183006536 1
vt 0.6666666666666671 0.9234248366013073
vt 0.7973856209150332 0.869281045751634
vt 0.3888888888888889 0.06535947712418277
vt 0.5196078431372548 0.06535947712418277
vt 0.5196078431372548 1
vt 0.3888888888888889 1
vt 0.928104575163399 0.9201568627450983
vt 0.8515294117647064 0.9967320261437911
vt 0.797385620915033 0.8660130718954251
vt 0.8515294117647064 1
vt 0.74324183006536 1
vt 0.7973856209150332 0.869281045751634
vt 0.19444444444444445 0.065359477124183
vt 0.32516339869281047 0.065359477124183
vt 0.32516339869281047 1
vt 0.19444444444444445 1
vt 0.8515294117647064 0.9967320261437911
vt 0.74324183006536 0.9967320261437911
vt 0.797385620915033 0.8660130718954251
vt 0.9281045751633992 0.9234248366013073
vt 0.8515294117647064 1
vt 0.7973856209150332 0.869281045751634
vt 0.3954248366013072 0.06535947712418277
vt 0.5261437908496733 0.06535947712418277
vt 0.5261437908496733 1
vt 0.3954248366013072 1
vt 0.74324183006536 0.9967320261437911
vt 0.6666666666666671 0.9201568627450983
vt 0.797385620915033 0.8660130718954251
vt 0.9281045751633992 0.8151372549019609
vt 0.9281045751633992 0.9234248366013073
vt 0.7973856209150332 0.869281045751634
vt 0.19934640522875816 0.065359477124183
vt 0.3300653594771242 0.065359477124183
vt 0.3300653594771242 1
vt 0.19934640522875816 1
vt 0.6666666666666671 0.9201568627450983
vt 0.6666666666666671 0.811869281045752
vt 0.797385620915033 0.8660130718954251
vt 0.8515294117647064 0.7385620915032679
vt 0.9281045751633992 0.8151372549019609
vt 0.7973856209150332 0.869281045751634
vt 0.3888888888888889 0.06535947712418277
vt 0.5196078431372549 0.06535947712418277
vt 0.5196078431372549 1
vt 0.3888888888888889 1
vt 0.6666666666666671 0.811869281045752
vt 0.74324183006536 0.735294117647059
vt 0.797385620915033 0.8660130718954251
vt 0.74324183006536 0.7385620915032679
vt 0.8515294117647064 0.7385620915032679
vt 0.7973856209150332 0.869281045751634
vt 0.19607843137254902 0.065359477124183
vt 0.32679738562091504 0.065359477124183
vt 0.32679738562091504 1
vt 0.19607843137254902 1
vt 0.74324183006536 0.735294117647059
vt 0.8515294117647064 0.735294117647059
vt 0.797385620915033 0.8660130718954251
vt 0.6666666666666671 0.8151372549019609
vt 0.74324183006536 0.7385620915032679
vt 0.7973856209150332 0.869281045751634
vt 0.3888888888888889 0.06535947712418277
vt 0.5196078431372549 0.06535947712418277
vt 0.5196078431372549 1
vt 0.3888888888888889 1
vt 0.8515294117647064 0.735294117647059
vt 0.928104575163399 0.811869281045752
vt 0.797385620915033 0.8660130718954251
vt 0.6666666666666671 0.9234248366013073
vt 0.6666666666666671 0.8151372549019609
vt 0.7973856209150332 0.869281045751634
vt 0.1977124183006536 0.065359477124183
vt 0.3284313725490196 0.065359477124183
vt 0.3284313725490196 1
vt 0.1977124183006536 1
vt 0.928104575163399 0.811869281045752
vt 0.928104575163399 0.9201568627450983
vt 0.797385620915033 0.8660130718954251
vn 0 -2.220446049250313e-16 -1
vn 0.7071067811865457 -0.7071067811865493 1.570092458683779e-16
vn 0 2.220446049250313e-16 1
vn 0 -2.220446049250313e-16 -1
vn 1 0 0
vn 0 2.220446049250313e-16 1
vn 0 -2.220446049250313e-16 -1
vn 0.7071067811865459 0.7071067811865491 -1.5700924586837786e-16
vn 0 2.220446049250313e-16 1
vn 0 -2.220446049250313e-16 -1
vn 1.3401577416544749e-16 1 -2.220446049250313e-16
vn 0 2.220446049250313e-16 1
vn 0 -2.220446049250313e-16 -1
vn -0.7071067811865456 0.7071067811865496 -1.5700924586837796e-16
vn 0 2.220446049250313e-16 1
vn 0 -2.220446049250313e-16 -1
vn -1 0 0
vn 0 2.220446049250313e-16 1
vn 0 -2.220446049250313e-16 -1
vn -0.7071067811865456 -0.7071067811865496 1.5700924586837796e-16
vn 0 2.220446049250313e-16 1
vn 0 -2.220446049250313e-16 -1
vn 0 -1 2.220446049250313e-16
vn 0 2.220446049250313e-16 1
usemtl m_e98c1505-e212-3dfa-7aff-2e827df7b9b8
f 5/1/1 3/2/1 1/3/1
f 3/4/2 5/5/2 6/6/2 4/7/2
f 4/8/3 6/9/3 2/10/3
f 7/11/4 5/12/4 1/13/4
f 5/14/5 7/15/5 8/16/5 6/17/5
f 6/18/6 8/19/6 2/20/6
f 9/21/7 7/22/7 1/23/7
f 7/24/8 9/25/8 10/26/8 8/27/8
f 8/28/9 10/29/9 2/30/9
f 11/31/10 9/32/10 1/33/10
f 9/34/11 11/35/11 12/36/11 10/37/11
f 10/38/12 12/39/12 2/40/12
f 13/41/13 11/42/13 1/43/13
f 11/44/14 13/45/14 14/46/14 12/47/14
f 12/48/15 14/49/15 2/50/15
f 15/51/16 13/52/16 1/53/16
f 13/54/17 15/55/17 16/56/17 14/57/17
f 14/58/18 16/59/18 2/60/18
f 17/61/19 15/62/19 1/63/19
f 15/64/20 17/65/20 18/66/20 16/67/20
f 16/68/21 18/69/21 2/70/21
f 3/71/22 17/72/22 1/73/22
f 17/74/23 3/75/23 4/76/23 18/77/23
f 18/78/24 4/79/24 2/80/24