# Made in Blockbench 5.1.4
mtllib materials.mtl

o Hook
v 0.0937500000000001 0.9375 0
v 0.0937500000000001 0.9290771484375 -0.06701660156249957
v 0.06629126073623895 0.993233515911253 -0.0837046740267707
v 0.06629126073623895 1.0037912607362387 0
v 1.1275702593849246e-16 1.0198079534314737 -0.09061709997133681
v 1.1676857397668883e-16 1.03125 0
v -0.06629126073623873 0.9932335159112531 -0.0837046740267707
v -0.06629126073623873 1.003791260736239 0
v -0.0937499999999999 0.9290771484375 -0.06701660156249957
v -0.0937499999999999 0.9375 0
v -0.06629126073623876 0.864920780963747 -0.050328529098228436
v -0.06629126073623876 0.8712087392637612 0
v 4.949382917396328e-17 0.8383463434435263 -0.04341610315366233
v 5.2150124496552763e-17 0.84375 0
v 0.0662912607362389 0.8649207809637469 -0.050328529098228436
v 0.0662912607362389 0.8712087392637612 0
v 0.09375000000000008 0.9052734374999999 -0.12597656249999936
v 0.06629126073623894 0.9629260132655572 -0.15869829469126168
v 1.0055975149803054e-16 0.9868064920533933 -0.1722520799492228
v -0.06629126073623874 0.9629260132655572 -0.15869829469126165
v -0.09374999999999992 0.9052734375 -0.12597656249999936
v -0.06629126073623876 0.8476208617344428 -0.09325483030873706
v 4.342229700804445e-17 0.8237403829466066 -0.07970104505077592
v 0.0662912607362389 0.8476208617344427 -0.09325483030873707
v 0.09375000000000006 0.8682861328124999 -0.17468261718749933
v 0.06629126073623891 0.9151611328124999 -0.22155761718749933
v 8.180305391403131e-17 0.9345773935487387 -0.24097387792373817
v -0.06629126073623874 0.9151611328124999 -0.22155761718749933
v -0.09374999999999994 0.8682861328124999 -0.17468261718749933
v -0.0662912607362388 0.8214111328124999 -0.12780761718749933
v 3.518236049715462e-17 0.8019948720762611 -0.1083913564512605
v 0.06629126073623885 0.8214111328124999 -0.12780761718749933
v 0.09375000000000004 0.8203124999999998 -0.21093749999999944
v 0.0662912607362389 0.8525063821754739 -0.26888648791585257
v 5.833007687972014e-17 0.8658415247979967 -0.29288974463639356
v -0.06629126073623876 0.8525063821754739 -0.26888648791585257
v -0.09374999999999996 0.8203124999999999 -0.21093749999999944
v -0.0662912607362388 0.7881186178245257 -0.15298851208414632
v 2.564138137928218e-17 0.7747834752020029 -0.12898525536360533
v 0.06629126073623885 0.7881186178245257 -0.15298851208414632
v 0.09375000000000003 0.7635498046874998 -0.2325439453124996
v 0.06629126073623887 0.7780548986417203 -0.2972288237569957
v 3.230922474006803e-17 0.7840631052810545 -0.3240221776891611
v -0.06629126073623881 0.7780548986417204 -0.2972288237569957
v -0.09374999999999997 0.7635498046874998 -0.2325439453124996
v -0.06629126073623881 0.7490447107332793 -0.1678590668680035
v 1.5341460740669888e-17 0.7430365040939451 -0.14106571293583817
v 0.06629126073623884 0.7490447107332792 -0.1678590668680035
v 0.09375000000000001 0.7001953124999998 -0.23730468749999978
v 0.06629126073623885 0.6957856834294518 -0.30344912355822146
v 6.071532165918825e-18 0.6939591552633962 -0.3308470460490569
v -0.06629126073623882 0.6957856834294519 -0.3034491235582215
v -0.09374999999999999 0.7001953124999998 -0.23730468749999978
v -0.06629126073623882 0.7046049415705478 -0.1711602514417781
v 4.7704895589362195e-18 0.7064314697366033 -0.14376232895094265
v 0.06629126073623882 0.7046049415705476 -0.17116025144177807
v 0.09375 0.6324462890624999 -0.22302246093749994
v 0.06629126073623881 0.610296783056819 -0.2855039032520329
v -1.7726705520137997e-17 0.6011221572694017 -0.3113845640553446
v -0.06629126073623884 0.610296783056819 -0.2855039032520329
v -0.09375 0.6324462890624999 -0.22302246093749994
v -0.06629126073623884 0.6545957950681808 -0.16054101862296702
v -5.9631119486702744e-18 0.6637704208555981 -0.1346603578196553
v 0.06629126073623881 0.6545957950681808 -0.16054101862296702
v 0.09374999999999999 0.5625 -0.1875
v 0.06629126073623878 0.5257282246615904 -0.2426576630076142
v -3.69712940817557e-17 0.5104968566038847 -0.2655047150941728
v -0.06629126073623887 0.5257282246615904 -0.2426576630076142
v -0.09375000000000001 0.5625 -0.1875
v -0.06629126073623884 0.5992717753384096 -0.1323423369923858
v -1.6154612370034016e-17 0.6145031433961153 -0.10949528490582722
v 0.06629126073623881 0.5992717753384096 -0.1323423369923858
v 0.09374999999999997 0.5100097656250001 -0.1435546875
v 0.0662912607362388 0.4609978270410381 -0.18819056013896532
v -5.285485590866834e-17 0.4406964173613638 -0.20667934395438292
v -0.06629126073623888 0.4609978270410381 -0.18819056013896532
v -0.09375000000000003 0.5100097656250001 -0.1435546875
v -0.06629126073623885 0.5590217042089621 -0.09891881486103468
v -2.6346112791397758e-17 0.5793231138886364 -0.08043003104561709
v 0.0662912607362388 0.5590217042089621 -0.09891881486103468
v 0.09374999999999994 0.4824218750000002 -0.10546874999999997
v 0.06629126073623877 0.4251608826620803 -0.13887099553045318
v -7.003946034256359e-17 0.40144260304077206 -0.15270665864288302
v -0.06629126073623891 0.4251608826620803 -0.1388709955304532
v -0.09375000000000006 0.4824218750000002 -0.10546875
v -0.06629126073623885 0.53968286733792 -0.07206650446954678
v -3.5344990823027445e-17 0.5634011469592284 -0.05823084135711695
v 0.0662912607362388 0.53968286733792 -0.07206650446954677
v 0.09374999999999993 0.4636230468750002 -0.07324218749999997
v 0.06629126073623877 0.4086776233109656 -0.11033034840572337
v -8.120674271916428e-17 0.38591848368040815 -0.12569276765634962
v -0.06629126073623888 0.4086776233109656 -0.1103303484057234
v -0.09375000000000007 0.4636230468750002 -0.07324218750000001
v -0.0662912607362389 0.5185684704390348 -0.0361540265942766
v -5.068645156369733e-17 0.5413276100695922 -0.020791607343650348
v 0.06629126073623876 0.5185684704390348 -0.03615402659427658
v 0.09374999999999993 0.4375000000000001 -0.04687499999999998
v 0.06629126073623876 0.40072822466159064 -0.10203266300761427
v -7.925517880869037e-17 0.385496856603885 -0.12487971509417287
v -0.06629126073623892 0.40072822466159064 -0.10203266300761428
v -0.09375000000000007 0.4375000000000002 -0.046875
v -0.0662912607362389 0.4742717753384096 0.008282663007614287
v -7.96346495690603e-17 0.48950314339611534 0.031129715094172894
v 0.06629126073623876 0.4742717753384096 0.008282663007614308
v 0.09374999999999992 0.3879394531250001 -0.02636718749999999
v 0.06629126073623876 0.3710341019055423 -0.09046664420711084
v -8.267041565201971e-17 0.3640316761537623 -0.1170175085159432
v -0.06629126073623892 0.3710341019055423 -0.09046664420711084
v -0.09375000000000008 0.3879394531250001 -0.026367187500000007
v -0.06629126073623892 0.4048448043444579 0.03773226920711085
v -1.039207782327356e-16 0.4118472300962379 0.06428313351594322
v 0.06629126073623873 0.4048448043444579 0.03773226920711086
v 0.0937499999999999 0.298828125 -0.011718749999999993
v 0.06629126073623874 0.2920645028746117 -0.07766406572253604
v -9.394611824586896e-17 0.28926291885950917 -0.10497950986978616
v -0.06629126073623894 0.2920645028746117 -0.07766406572253605
v -0.0937500000000001 0.298828125 -0.01171875000000001
v -0.06629126073623894 0.3055917471253884 0.054226565722536035
v -1.2115959277525512e-16 0.30839333114049094 0.08154200986978616
v 0.06629126073623871 0.3055917471253884 0.05422656572253605
v 0.09374999999999989 0.154052734375 -0.0029296874999999957
v 0.06629126073623873 0.15187148778516435 -0.06918505266625903
v -1.0787811616230769e-16 0.15096798586477433 -0.09662892349810547
v -0.06629126073623895 0.15187148778516435 -0.06918505266625904
v -0.09375000000000011 0.154052734375 -0.0029296875000000134
v -0.06629126073623895 0.15623398096483565 0.06332567766625903
v -1.3666368384179783e-16 0.15713748288522567 0.09076954849810547
v 0.0662912607362387 0.15623398096483565 0.06332567766625904
v 0.09374999999999988 -0.0625 3.1819607273012154e-18
v -0.09375000000000012 -0.0625 -1.4663024469307654e-17
v -1.5222198501696482e-16 -0.0625 0.09375
v 0.06629126073623869 -0.0625 0.06629126073623884
v -0.09375000000000012 0.9375 1.1481063742006448e-17
v -0.09375000000000012 0.9290771484375 0.06701660156249958
v -0.06629126073623898 0.993233515911253 0.08370467402677072
v -0.06629126073623898 1.003791260736239 8.118338027207764e-18
v -1.432773170939594e-16 1.0198079534314737 0.09061709997133681
v -1.584019374001322e-16 1.03125 1.5407439555097887e-32
v 0.0662912607362387 0.9932335159112531 0.08370467402677069
v 0.06629126073623867 1.003791260736239 -8.118338027207736e-18
v 0.09374999999999988 0.9290771484375 0.06701660156249956
v 0.09374999999999988 0.9375 -1.148106374200642e-17
v 0.06629126073623873 0.8649207809637469 0.05032852909822843
v 0.06629126073623873 0.8712087392637612 -8.118338027207736e-18
v -8.581460195222768e-17 0.8383463434435263 0.04341610315366233
v -9.378348791999613e-17 0.84375 9.244463733058732e-33
v -0.06629126073623892 0.8649207809637469 0.05032852909822844
v -0.06629126073623892 0.8712087392637612 8.118338027207758e-18
v -0.09375000000000011 0.9052734375 0.12597656249999936
v -0.06629126073623896 0.9629260132655572 0.15869829469126168
v -1.2110538266663085e-16 0.9868064920533933 0.1722520799492228
v 0.06629126073623871 0.9629260132655572 0.15869829469126165
v 0.09374999999999989 0.9052734375 0.12597656249999936
v 0.06629126073623873 0.8476208617344427 0.09325483030873705
v -7.535205098774256e-17 0.8237403829466066 0.07970104505077592
v -0.06629126073623892 0.8476208617344427 0.09325483030873709
v -0.09375000000000008 0.8682861328124999 0.17468261718749933
v -0.06629126073623894 0.9151611328124999 0.22155761718749933
v -9.394611824586896e-17 0.9345773935487387 0.24097387792373817
v 0.06629126073623874 0.9151611328124999 0.22155761718749933
v 0.09374999999999992 0.8682861328124999 0.17468261718749933
v 0.06629126073623877 0.8214111328124999 0.12780761718749933
v -6.353424730765056e-17 0.8019948720762611 0.1083913564512605
v -0.06629126073623888 0.8214111328124999 0.12780761718749933
v -0.09375000000000007 0.8203124999999998 0.21093749999999944
v -0.06629126073623892 0.8525063821754739 0.26888648791585257
v -6.413055850251759e-17 0.8658415247979967 0.29288974463639356
v 0.06629126073623876 0.8525063821754739 0.26888648791585257
v 0.09374999999999993 0.8203124999999998 0.21093749999999944
v 0.06629126073623877 0.7881186178245257 0.15298851208414632
v -5.139118297581291e-17 0.7747834752020029 0.12898525536360533
v -0.06629126073623888 0.7881186178245257 0.15298851208414632
v -0.09375000000000003 0.7635498046874998 0.2325439453124996
v -0.06629126073623887 0.7780548986417203 0.2972288237569957
v -3.4206578541917665e-17 0.7840631052810545 0.3240221776891611
v 0.06629126073623881 0.7780548986417204 0.2972288237569957
v 0.09374999999999997 0.7635498046874998 0.2325439453124996
v 0.06629126073623878 0.7490447107332793 0.1678590668680035
v -3.973600962159374e-17 0.7430365040939451 0.14106571293583817
v -0.06629126073623887 0.7490447107332792 0.1678590668680035
v -0.09375000000000001 0.7001953124999998 0.23730468749999978
v -0.06629126073623885 0.6957856834294518 0.30344912355822146
v -7.209944447028604e-18 0.6939591552633962 0.3308470460490569
v 0.06629126073623882 0.6957856834294518 0.3034491235582215
v 0.09374999999999999 0.7001953124999998 0.23730468749999978
v 0.06629126073623882 0.7046049415705478 0.1711602514417781
v -2.878556767949014e-17 0.7064314697366033 0.14376232895094265
v -0.06629126073623882 0.7046049415705478 0.17116025144177807
v -0.09375 0.6324462890624999 0.22302246093749994
v -0.06629126073623881 0.6102967830568189 0.2855039032520329
v 1.4203048459560108e-17 0.6011221572694017 0.3113845640553446
v 0.06629126073623884 0.610296783056819 0.2855039032520329
v 0.09375 0.6324462890624999 0.22302246093749994
v 0.06629126073623881 0.6545957950681809 0.16054101862296702
v -1.919037845299343e-17 0.6637704208555981 0.1346603578196553
v -0.06629126073623884 0.6545957950681808 0.16054101862296702
v -0.09374999999999999 0.5625 0.1875
v -0.06629126073623881 0.5257282246615904 0.2426576630076142
v 2.7863995832877464e-17 0.5104968566038847 0.2655047150941728
v 0.06629126073623887 0.5257282246615904 0.2426576630076142
v 0.09375000000000001 0.5625 0.1875
v 0.06629126073623881 0.5992717753384096 0.1323423369923858
v -1.2088854223213374e-17 0.6145031433961153 0.10949528490582722
v -0.06629126073623884 0.5992717753384096 0.1323423369923858
v -0.09375 0.5100097656250001 0.1435546875
v -0.0662912607362388 0.460997827041038 0.18819056013896532
v 3.65376132127615e-17 0.4406964173613638 0.20667934395438292
v 0.06629126073623885 0.4609978270410381 0.18819056013896532
v 0.09375 0.5100097656250001 0.1435546875
v 0.06629126073623882 0.5590217042089621 0.09891881486103467
v -5.4752209710517974e-18 0.5793231138886364 0.08043003104561709
v -0.06629126073623882 0.5590217042089621 0.0989188148610347
v -0.09374999999999997 0.4824218750000001 0.10546874999999999
v -0.0662912607362388 0.4251608826620803 0.13887099553045318
v 4.705437428587089e-17 0.40144260304077206 0.15270665864288302
v 0.06629126073623888 0.4251608826620803 0.1388709955304532
v 0.09375000000000003 0.4824218750000002 0.10546874999999999
v 0.06629126073623882 0.53968286733792 0.07206650446954677
v 8.673617379884035e-19 0.5634011469592284 0.05823084135711695
v -0.06629126073623882 0.53968286733792 0.07206650446954678
v -0.09374999999999996 0.4636230468750001 0.07324218749999999
v -0.0662912607362388 0.40867762331096547 0.11033034840572338
v 5.502326025363935e-17 0.38591848368040815 0.12569276765634962
v 0.06629126073623885 0.4086776233109656 0.11033034840572338
v 0.09375000000000004 0.4636230468750002 0.0732421875
v 0.06629126073623884 0.5185684704390349 0.03615402659427659
v 1.1600963245594897e-17 0.5413276100695922 0.020791607343650348
v -0.06629126073623881 0.5185684704390348 0.036154026594276585
v -0.09374999999999996 0.4375000000000001 0.04687499999999999
v -0.06629126073623878 0.40072822466159064 0.10203266300761428
v 5.296327612591689e-17 0.385496856603885 0.12487971509417287
v 0.0662912607362389 0.40072822466159064 0.10203266300761427
v 0.09375000000000004 0.4375000000000002 0.046874999999999986
v 0.06629126073623887 0.4742717753384096 -0.008282663007614295
v 3.4206578541917665e-17 0.48950314339611534 -0.031129715094172894
v -0.06629126073623878 0.4742717753384096 -0.008282663007614299
v -0.09374999999999994 0.3879394531250001 0.0263671875
v -0.06629126073623878 0.3710341019055423 0.09046664420711086
v 5.5348520905385e-17 0.3640316761537623 0.1170175085159432
v 0.0662912607362389 0.3710341019055423 0.09046664420711083
v 0.09375000000000006 0.3879394531250001 0.026367187499999997
v 0.0662912607362389 0.4048448043444579 -0.037732269207110855
v -0.06629126073623876 0.4048448043444579 -0.037732269207110855
v -0.09374999999999993 0.298828125 0.011718750000000005
v -0.06629126073623877 0.2920645028746117 0.07766406572253605
v 6.521476067500309e-17 0.28926291885950917 0.10497950986978616
v 0.06629126073623891 0.29206450287461183 0.07766406572253604
v 0.09375000000000007 0.2988281250000001 0.011718749999999998
v 0.06629126073623891 0.3055917471253884 -0.05422656572253604
v -0.06629126073623874 0.3055917471253884 -0.05422656572253604
v -0.09374999999999992 0.154052734375 0.002929687500000007
v -0.06629126073623876 0.15187148778516424 0.06918505266625904
v 7.806255641895632e-17 0.15096798586477433 0.09662892349810547
v 0.06629126073623892 0.15187148778516435 0.06918505266625903
v 0.09375000000000008 0.154052734375 0.002929687500000002
v 0.0662912607362389 0.15623398096483576 -0.06332567766625904
v -0.06629126073623876 0.15623398096483565 -0.06332567766625903
v -0.06629126073623874 -0.0625 0.06629126073623884
v 0.0937500000000001 -0.0625 3.181960727301203e-18
v 0.06629126073623891 -0.0625 -0.06629126073623884
v -0.06629126073623874 -0.0625 -0.06629126073623882
v 5.442694905877232e-17 0.4118472300962379 -0.06428313351594322
v 6.949735925632083e-17 0.30839333114049094 -0.08154200986978616
v 8.397145825900232e-17 0.15713748288522567 -0.09076954849810547
v 9.915028867379938e-17 -0.0625 -0.09375
v -1.3183898417423734e-16 -0.3125 0
vt 0.01910419574769026 0.75
vt 0.02283957238704004 0.766467599904543
vt 0.005943075607858367 0.7724936665818141
vt 0.0012696058887776696 0.7519257518757689
vt 0.157109375 0.9082432496232867
vt 0.1782 0.9082432496232867
vt 0.179084375 0.9261588746232867
vt 0.15625 0.9261604371232868
vt 0 0.7300908902860425
vt 0.022834374999999997 0.7300908902860425
vt 0.0219515625 0.7480080777860425
vt 0.000859374999999999 0.7480096402860426
vt 0.0012677822866981603 0.904323149336355
vt 0.005941982455775735 0.8837570044455395
vt 0.02283766156229411 0.8897825955967017
vt 0.019101417922669117 0.90625
vt 0.21101347037817453 0.6898749936019617
vt 0.20800265387006334 0.7064903440107972
vt 0.19086006516271597 0.7012100903539871
vt 0.19311166911023786 0.688731915701748
vt 0.352318660037852 0.9375
vt 0.339638972537852 0.9375
vt 0.340529597537852 0.9195828125
vt 0.351467097537852 0.91958125
vt 0.2577200034988876 0.67416875
vt 0.24678250349888756 0.67416875
vt 0.24588875349888756 0.656253125
vt 0.25856844099888754 0.65625
vt 0.30802491148645517 0.9656062796608917
vt 0.3052333719738291 0.9532376992149754
vt 0.3221320940950451 0.947218043929832
vt 0.3258603439503836 0.9636872624267425
vt 0.02283957238704004 0.766467599904543
vt 0.029923827155964505 0.7806969461242971
vt 0.014961547102090078 0.790593203520541
vt 0.005943426330999979 0.7724935414978358
vt 0.1782 0.9082432496232867
vt 0.1983233989289805 0.90625
vt 0.200989605710041 0.9239892057323293
vt 0.17908445574389564 0.9261605103291299
vt 0.022834375 0.7300908902860425
vt 0.044741233841627724 0.7322607943039436
vt 0.04207502681923034 0.75
vt 0.02195162791736747 0.7480067501029402
vt 0.005941982455775735 0.8837570044455395
vt 0.014960594936565985 0.8656575885036656
vt 0.029922333803009224 0.8755532825776375
vt 0.022838888655171835 0.8897830332210162
vt 0.20800265387006334 0.7064903440107972
vt 0.20154802511445635 0.7210161392420384
vt 0.1861662791424336 0.7117857122500881
vt 0.19085893841249602 0.7012097432928127
vt 0.339638972537852 0.9375
vt 0.328125 0.9363595756293177
vt 0.3307973500099677 0.9186209744529634
vt 0.3405295707444425 0.9195833515175904
vt 0.24678250349888756 0.67416875
vt 0.2370520797203701 0.6751334165776769
vt 0.234375 0.6573953678246344
vt 0.24588871419196934 0.6562523370749578
vt 0.3052333719738291 0.9532376992149754
vt 0.300085987216346 0.9428754329808889
vt 0.315051570434799 0.9329849032328328
vt 0.32213074718750706 0.9472185237246367
vt 0.029923827155964505 0.7806969461242971
vt 0.039860645498888236 0.792318600658414
vt 0.027793259724842687 0.8055906912461339
vt 0.014963017105650456 0.7905922312400092
vt 0.2722618362273135 0.6569565825053887
vt 0.2909785733026172 0.663216852647951
vt 0.28617639965352004 0.6805002024249314
vt 0.2657111272485624 0.6736550919080342
vt 0.07821253607619139 0.6700770037947599
vt 0.09867833863270156 0.6632334785105516
vt 0.10347966903529117 0.6805186820535076
vt 0.08476096525614149 0.6867779979169584
vt 0.014960594936565985 0.8656575885036656
vt 0.027790006013971344 0.8506604741008594
vt 0.039857123230578315 0.8639320166727279
vt 0.029921979849278135 0.87555304847264
vt 0.20154802511445635 0.7210161392420384
vt 0.19212955367088214 0.7330617030958895
vt 0.1794926612908549 0.7203306725420069
vt 0.18616613268790638 0.711785624364238
vt 0.119331007736754 0.8993845510332746
vt 0.10905147498053268 0.9028319030749045
vt 0.10424145472270509 0.885550398597174
vt 0.11277390339308889 0.8826873019993149
vt 0.4252690113115431 0.8360719346225481
vt 0.41673729774670865 0.8332066486599226
vt 0.4215532712078486 0.8159267177029017
vt 0.43183181733846476 0.8193770106857305
vt 0.300085987216346 0.9428754329808889
vt 0.29304672983762503 0.9346291074148397
vt 0.3051187863010646 0.9213596753157705
vt 0.3150509318566818 0.9329853252595439
vt 0.039860645498888236 0.792318600658414
vt 0.05218055597626582 0.800932848013207
vt 0.04388424535679099 0.8168363467354722
vt 0.02779307001328861 0.8055908998968705
vt 0.2909785733026172 0.663216852647951
vt 0.3101431580231828 0.6674645960295502
vt 0.3072002580772266 0.6851611321093738
vt 0.2861761152276815 0.6805012260928809
vt 0.09867833863270156 0.6632334785105516
vt 0.11970436833436089 0.6585748650914272
vt 0.12264403227034909 0.6762704418545227
vt 0.10347911816297435 0.6805166988656568
vt 0.027790006013971344 0.8506604741008594
vt 0.04387820477560797 0.8394134970868468
vt 0.05217695734727254 0.8553150402476508
vt 0.03985679858499923 0.8639316596241018
vt 0.19212955367088214 0.7330617030958895
vt 0.1801986050894846 0.7422070799393117
vt 0.17121301310182085 0.7266808193942208
vt 0.17949246262607882 0.7203304723972832
vt 0.10905147498053268 0.9028319030749045
vt 0.09886441075332542 0.9050974083021464
vt 0.09591386315258152 0.8874034735790653
vt 0.10424132312792579 0.8855499258017083
vt 0.41673729774670865 0.8332066486599226
vt 0.4084102961135534 0.8313510435392328
vt 0.4113669305636567 0.8136580399720467
vt 0.42155335904588465 0.8159264025360492
vt 0.29304672983762503 0.9346291074148397
vt 0.2844980004743707 0.9286434564245347
vt 0.2927995108455638 0.9127417605431317
vt 0.3051186928394543 0.921359778047438
vt 0.05218055597626582 0.800932848013207
vt 0.06645224363482037 0.8061178432414869
vt 0.06260192800756556 0.8236390384485663
vt 0.043883905173576265 0.8168369988450146
vt 0.3101431580231828 0.6674645960295502
vt 0.3299382737785993 0.6696521771983954
vt 0.32894448020092815 0.6875639001242515
vt 0.3072002925584061 0.685160924763746
vt 0.11970436833436089 0.6585748650914272
vt 0.1414472118209148 0.6561739523234947
vt 0.1424394476141654 0.6740857616117338
vt 0.122643970186138 0.6762700681329181
vt 0.04387820477560796 0.8394134970868468
vt 0.06259559709297766 0.8326097228417461
vt 0.06644891108225348 0.8501302588841768
vt 0.05217757714890624 0.8553162278722177
vt 0.1801986050894846 0.7422070799393117
vt 0.1661671756120684 0.7480108917006391
vt 0.16155533932429578 0.7306761690573087
vt 0.17121331748589658 0.7266813453413673
vt 0.09886441075332542 0.9050974083021464
vt 0.08847659620600867 0.90625
vt 0.08747354840725313 0.888340440939042
vt 0.095913938908773 0.8874039278761277
vt 0.4084102961135534 0.8313510435392328
vt 0.39997170328562354 0.8304125
vt 0.40097804583819124 0.8125014777367525
vt 0.41136711209120025 0.8136569536803424
vt 0.2844980004743707 0.9286434564245347
vt 0.2746754253142187 0.9250724375342778
vt 0.27852954547757697 0.9075520788141929
vt 0.29279957304335164 0.9127416414021248
vt 0.06645224363482037 0.8061178432414869
vt 0.08228187406414597 0.8074165092420913
vt 0.0831589562416002 0.8253325895716032
vt 0.06260209859600019 0.8236382621710991
vt 0.3299382737785993 0.6696521771983954
vt 0.3505632737785993 0.6696521771983954
vt 0.3515351487785993 0.6875646771983954
vt 0.32894452377859934 0.6875631146983955
vt 0.1414472118209148 0.6561739523234947
vt 0.16403783682091477 0.6561739523234947
vt 0.16306439932091477 0.6740848898234947
vt 0.1424393993209148 0.6740848898234947
vt 0.06259559709297766 0.8326097228417461
vt 0.08315049628431308 0.8309106806898151
vt 0.08227819280606183 0.8488278113614688
vt 0.06644884837814272 0.8501299737764394
vt 0.1661671756120684 0.7480108917006391
vt 0.15040940987312024 0.75
vt 0.150502803345612 0.7320627068603196
vt 0.16155514545033 0.7306754403342547
vt 0.08847659620600867 0.90625
vt 0.07733597120600869 0.90625
vt 0.07829847120600869 0.8883375
vt 0.08747347120600868 0.8883390625
vt 0.39997170328562354 0.8304125
vt 0.39079670328562355 0.8304125
vt 0.3898373282856235 0.8125
vt 0.4009779532856235 0.812503125
vt 0.2746754253142187 0.9250724375342778
vt 0.26357165244995245 0.9241670350992192
vt 0.2626998126037035 0.9062509782496666
vt 0.27852907038011104 0.9075542385491457
vt 0.08228187406414597 0.8074165092420913
vt 0.09931365966916626 0.8043289953562522
vt 0.10464935130938136 0.8214550296741795
vt 0.08315899219505496 0.8253333239896543
vt 0.3505632737785993 0.6696521771983954
vt 0.37227577285285485 0.6673044048863176
vt 0.3751119132274336 0.6850162176724277
vt 0.35153511232435797 0.6875640053150787
vt 0.16403783682091477 0.6561739523234947
vt 0.1876142358762938 0.6587254553776628
vt 0.1847749179108497 0.6764368398987884
vt 0.16306435576451495 0.6740856912472691
vt 0.08315049628431308 0.8309106806898151
vt 0.10464343476093418 0.8347834376559939
vt 0.09931075764423575 0.8519107966713049
vt 0.0822782100566767 0.8488274570334986
vt 0.15040940987312024 0.75
vt 0.13325877901973132 0.7476611275747898
vt 0.1378410952674936 0.730318120415224
vt 0.15050280611638728 0.7320621747009803
vt 0.07733597120600869 0.90625
vt 0.06462939736972276 0.904870386682612
vt 0.0674579588400005 0.8871565824850522
vt 0.07829842827318964 0.8883382989964899
vt 0.39079670328562355 0.8304125
vt 0.3799559327940072 0.8315914421617522
vt 0.37713050342764315 0.8138774545502963
vt 0.38983734387010005 0.8125002909779138
vt 0.26357165244995245 0.9241670350992192
vt 0.2509977209394735 0.9264597622814814
vt 0.24566695275259987 0.9093319343218147
vt 0.26269976499964387 0.90625
vt 0.09931365966916626 0.8043289953562522
vt 0.11721059539678688 0.7963071596678692
vt 0.1262847239499757 0.8117804354604772
vt 0.10464952597511125 0.821455590300896
vt 0.37227577285285485 0.6673044048863176
vt 0.39546616219368713 0.662416067518601
vt 0.39996047419963743 0.679782817468763
vt 0.37511211025963603 0.6850174481466011
vt 0.1876142358762938 0.6587254553776628
vt 0.21246147487666128 0.6639654222784283
vt 0.20796436397245438 0.6813299087519155
vt 0.18477474539069996 0.676437916062412
vt 0.10464343476093418 0.8347834376559939
vt 0.12628056480329197 0.8444542495934736
vt 0.11720917887621465 0.8599293114792896
vt 0.09931078242576882 0.8519107170785967
vt 0.13325877901973132 0.7476611275747898
vt 0.11502841966397546 0.7404289664862902
vt 0.12341922364235748 0.7245745480982038
vt 0.13784119640409137 0.7303177376365935
vt 0.06462939736972276 0.904870386682612
vt 0.04943989882379474 0.9016602840482325
vt 0.05392831473279717 0.8842911238456366
vt 0.06745816792544068 0.8871552730920669
vt 0.3799559327940072 0.8315914421617522
vt 0.3664238427950973 0.8344525637641843
vt 0.3619418078552259 0.8170837260388043
vt 0.3771304542067822 0.8138771459608369
vt 0.2509977209394735 0.9264597622814814
vt 0.23683726329308855 0.93282427830746
vt 0.22776735682608387 0.9173478641770473
vt 0.2456669402751444 0.9093318942315869
vt 0.11721059539678688 0.7963071596678692
vt 0.13102842250891347 0.7862096951765583
vt 0.14333209936467273 0.7992648861897742
vt 0.12628551225945925 0.8117817796920448
vt 0.39546616219368713 0.662416067518601
vt 0.415697378453617 0.65625
vt 0.4217888727514376 0.6731226832452755
vt 0.3999606875892816 0.6797836420409306
vt 0.21246147487666128 0.6639654222784283
vt 0.23428746392380861 0.670628219342084
vt 0.22819439806882186 0.6875
vt 0.20796411810097243 0.6813308581241043
vt 0.12628056480329197 0.8444542495934736
vt 0.14332970000848289 0.8569702189428736
vt 0.1310275163283639 0.8700263290666392
vt 0.11720865720187225 0.8599302014141681
vt 0.11502841966397546 0.7404289664862902
vt 0.10078339890501828 0.7309436874270961
vt 0.11250518320220354 0.717365667435427
vt 0.12341987303175936 0.7245733210773723
vt 0.04943989882379474 0.9016602840482325
vt 0.036918992263246006 0.8978834795235539
vt 0.04300292525802372 0.8810089754787986
vt 0.05392784478373926 0.8842929424428075
vt 0.3664238427950973 0.8344525637641843
vt 0.35549809139334687 0.8377337437870273
vt 0.34941818266153524 0.8208568115235695
vt 0.36194156514939585 0.8170827855021434
vt 0.23683726329308855 0.93282427830746
vt 0.22624751493385062 0.9404985589384796
vt 0.21394681253227021 0.9274416882084852
vt 0.22776698795316164 0.9173472347515812
vt 0.13102842250891347 0.7862096951765583
vt 0.13870675099155408 0.7773072974222917
vt 0.1533027535760642 0.7877359948031147
vt 0.14333109914800485 0.799263824879419
vt 0.05465593509385312 0.71875
vt 0.069884375 0.7193593179921012
vt 0.06985468641616986 0.7372974728536801
vt 0.053183775745485815 0.7366273114430313
vt 0.20638336979294175 0.9821494615860212
vt 0.22304012442326968 0.9811898291951155
vt 0.22338163193796012 0.9991248775783242
vt 0.20816458744917576 1
vt 0.14332970000848289 0.8569702189428736
vt 0.1533010682732926 0.8684962098034534
vt 0.13870775326155213 0.8789270185322933
vt 0.13102789731365153 0.8700259247330673
vt 0.10078339890501828 0.7309436874270961
vt 0.09272342599845723 0.7223852850757223
vt 0.10684875105740466 0.7113276586295267
vt 0.1125061536769784 0.7173645432784249
vt 0.21875 0.6247066686980703
vt 0.2104817641050999 0.625
vt 0.21050520109318502 0.6070628917855131
vt 0.2173307608836504 0.6068254325951354
vt 0.38921667567256124 0.5806707005658271
vt 0.38239095062144174 0.5804380874230848
vt 0.3823581370468873 0.5625
vt 0.390625 0.5627879791530275
vt 0.22624751493385062 0.9404985589384796
vt 0.22085812987466738 0.9467758431243564
vt 0.20626667581032548 0.9363426759601026
vt 0.21394731822483473 0.9274422249877867
vt 0.13870675099155408 0.7773072974222917
vt 0.14412963997794964 0.7697174231771639
vt 0.15806602276281517 0.7810133109716274
vt 0.1533029563865813 0.7877361397091941
vt 0.069884375 0.7193593179921012
vt 0.078125 0.7193593179921012
vt 0.07764375 0.7372905679921011
vt 0.0698546875 0.7372968179921011
vt 0.22304012442326968 0.9811898291951155
vt 0.230828125 0.9810612148656098
vt 0.2316194538321428 0.9989818415207962
vt 0.22338161780731208 0.999124135475017
vt 0.1533010682732926 0.8684962098034534
vt 0.15806606556963254 0.8752195052124399
vt 0.14413234463458052 0.8865157688112906
vt 0.13870792428020715 0.8789268962939343
vt 0.09272342599845723 0.7223852850757223
vt 0.08697345027553673 0.7150401033079612
vt 0.10040166715554034 0.7031471019144423
vt 0.10684905947846811 0.7113274171904878
vt 0.2104817641050999 0.625
vt 0.2000677016050999 0.625
vt 0.1996395766050999 0.6070671875
vt 0.2105052016050999 0.6070625000000001
vt 0.38239095062144174 0.5804380874230848
vt 0.37152532562144175 0.5804380874230848
vt 0.37194407562144177 0.5625052749230848
vt 0.38235813812144176 0.5625005874230847
vt 0.22085812987466738 0.9467758431243564
vt 0.21477443338586866 0.9552281407283267
vt 0.20084028797692782 0.9439301072286077
vt 0.20626550543884123 0.9363418391222326
vt 0.14412963997794964 0.7697174231771639
vt 0.1511242278489926 0.7636191987952708
vt 0.16020247073280097 0.7790914941052178
vt 0.15806536064488128 0.781012774303684
vt 0.2666712521208667 0.5974493227326791
vt 0.26941432138105087 0.5965936276349728
vt 0.273314875779443 0.6141030286839011
vt 0.273111538455234 0.6141910107652929
vt 0.230828125 0.9810612148656098
vt 0.2310578125 0.9810612148656098
vt 0.234375 0.9986909023656098
vt 0.23161874999999998 0.9989659023656098
vt 0.15806606556963254 0.8752195052124399
vt 0.16020270326898786 0.8771408126860368
vt 0.1511268983904508 0.8926131422177769
vt 0.14413172984975317 0.8865162672259996
vt 0.08697345027553673 0.7150401033079612
vt 0.07971955647331563 0.7092527356158447
vt 0.08811217392235393 0.693399480556176
vt 0.10040206675676526 0.7031467479986568
vt 0.2717527772289832 0.8125
vt 0.2566639502341905 0.8082132838704762
vt 0.26024769606737197 0.790636058944008
vt 0.2778899335996233 0.795643322688528
vt 0.16463416227973876 0.6261185847557798
vt 0.14708506095124363 0.6314430805949289
vt 0.14318501360375865 0.6139336828860189
vt 0.1581939132160314 0.609375
vt 0.21477443338586866 0.9552281407283267
vt 0.20292032948899252 0.9655008646152018
vt 0.19384567550320753 0.950026113466809
vt 0.20083990128601198 0.9439297936932747
vt 0.1511242278489926 0.7636191987952708
vt 0.1637205001740808 0.7590208010957626
vt 0.16773740151951563 0.7765033990748008
vt 0.16020227692293543 0.7790911637898129
vt 0.26941432138105087 0.5965936276349728
vt 0.27730700310247536 0.5955065895011207
vt 0.27898119115108877 0.613365485687368
vt 0.27331459493163457 0.6141017679715997
vt 0.006315967301972262 0.589023559478366
vt 0.011982474072514432 0.5897592301066408
vt 0.0103082198069844 0.6076188750247142
vt 0.0024184855482142498 0.6065315429319776
vt 0.16020270326898786 0.8771408126860368
vt 0.16773830156704322 0.8797274775175334
vt 0.16372297243840347 0.8972099440592783
vt 0.15112665282669177 0.8926135608520965
vt 0.07971955647331563 0.7092527356158447
vt 0.06693430853366025 0.7052093740178469
vt 0.0701831261465943 0.687567891295765
vt 0.08811257758020863 0.6933987180656935
vt 0.2566639502341905 0.8082132838704762
vt 0.2379683492295943 0.8057691595283858
vt 0.23931891686263004 0.7878807998798252
vt 0.260247750879369 0.790635790107197
vt 0.14708506095124363 0.6314430805949289
vt 0.12620925681608294 0.634574616097048
vt 0.124536502987312 0.6167142067028071
vt 0.14318511700578035 0.6139341471129783
vt 0.20292032948899252 0.9655008646152018
vt 0.1852605099720818 0.9721061666789075
vt 0.1812484348153028 0.9546224690963304
vt 0.19384634168847653 0.9500272494937333
vt 0.1637205001740808 0.7590208010957626
vt 0.18608365445530145 0.7559125766653285
vt 0.18755248470198174 0.7737899587348476
vt 0.1677373159383267 0.7765030266032382
vt 0.27730700310247536 0.5955065895011207
vt 0.2972752486549588 0.5943800152444806
vt 0.2978845439839219 0.6123085349347432
vt 0.2789813514658965 0.6133671957972391
vt 0.011982474072514432 0.5897592301066408
vt 0.030885689088214433 0.590817460341689
vt 0.03027796001014955 0.6087458942939603
vt 0.010308102432795382 0.6076201270814546
vt 0.16773830156704322 0.8797274775175334
vt 0.18755360180976194 0.8824392806613683
vt 0.18608464672457156 0.9003177119060327
vt 0.16372293429388973 0.8972101101378647
vt 0.06693430853366025 0.7052093740178469
vt 0.044456842121825456 0.7030797655513763
vt 0.04514587750866816 0.6851554708623526
vt 0.07018303214379537 0.6875684017426262
vt 0.2379683492295943 0.8057691595283858
vt 0.21283506640037672 0.8047702643926576
vt 0.21311943712826506 0.7868345963408425
vt 0.23931881739764993 0.7878821173002145
vt 0.12620925681608294 0.634574616097048
vt 0.10003305744522092 0.6360949364891167
vt 0.09942535171171023 0.618167198635116
vt 0.12453643081506002 0.6167134361016908
vt 0.1852605099720818 0.9721061666789075
vt 0.16035170279377806 0.9756034545166055
vt 0.1588859130780583 0.9577242178147621
vt 0.1812483984692507 0.9546223107086236
vt 0.18608365445530145 0.7559125766653285
vt 0.22231020361838622 0.7543337403490789
vt 0.22263207628385998 0.7722695477615709
vt 0.18755253532749241 0.7737905749065248
vt 0.2972752486549588 0.5943800152444806
vt 0.33238209609305447 0.59375
vt 0.33251491232955444 0.6116880046472908
vt 0.297884522636803 0.6123079067956071
vt 0.030885689088214433 0.590817460341689
vt 0.06551766699350779 0.5914359363859074
vt 0.06538485087843234 0.6093739246337455
vt 0.030277976599665277 0.6087454048916134
vt 0.18755360180976194 0.8824392806613683
vt 0.2226330649397943 0.8839620816197015
vt 0.22231122173207524 0.9018962475488616
vt 0.1860846727086315 0.9003173956579502
vt 0.044456842121825456 0.7030797655513763
vt 0.008195904621825456 0.7030797655513763
vt 0.007736529621825458 0.6851469530513763
vt 0.04514590462182546 0.6851547655513762
vt 0.21283506640037672 0.8047702643926576
vt 0.17542725390037672 0.8047702643926576
vt 0.17523506640037673 0.7868327643926576
vt 0.21311944140037672 0.7868343268926576
vt 0.10003305744522092 0.6360949364891167
vt 0.06215490022026125 0.6367812850753758
vt 0.06202208373788955 0.6188432472209402
vt 0.09942534722995303 0.6181670664201899
vt 0.16035170279377806 0.9756034545166055
vt 0.12297950821898312 0.9772354804657936
vt 0.12265919610901725 0.959299564805801
vt 0.1588858803578399 0.9577238187039461
vt 0.33238209609305447 0.59375
vt 0.38598053359305445 0.59375
vt 0.38588678359305445 0.6116874999999999
vt 0.33251490859305444 0.6116874999999999
vt 0.06551766699350779 0.5914359363859074
vt 0.11888954199350779 0.5914359363859074
vt 0.1189832919935078 0.6093734363859075
vt 0.0653848544935078 0.6093734363859075
vt 0.2226330649397943 0.8839620816197015
vt 0.2762315024397943 0.8839620816197015
vt 0.27645493993979425 0.9018995816197015
vt 0.22231118993979426 0.9018980191197015
vt 0.24642287910312774 0.8407696419323731
vt 0.1922960463816138 0.8394162596509211
vt 0.19252104613666093 0.8214787791791092
vt 0.24719141990644927 0.8228473150986388
vt 0.46557897878990684 0.71875
vt 0.41089446640694555 0.7181783692732597
vt 0.41098821640694555 0.7002408692732598
vt 0.46589927891263627 0.7008148681844393
vt 0.06215490022026125 0.6367812850753758
vt 0.0072408377202612395 0.6367812850753758
vt 0.007333025220261247 0.6188437850753759
vt 0.06202208772026124 0.6188437850753759
vt 0.12297950821898312 0.9772354804657936
vt 0.06829200821898312 0.9772354804657936
vt 0.06851544571898313 0.9592979804657936
vt 0.12265919571898314 0.9592995429657936
vt 0.4496458042523098 0.84375
vt 0.44591042761295996 0.827282400095457
vt 0.46280692439214166 0.8212563334181859
vt 0.46748039411122233 0.8418242481242311
vt 0.217890625 0.8730067503767133
vt 0.1968 0.8730067503767133
vt 0.195915625 0.8550911253767133
vt 0.21875 0.8550895628767132
vt 0.3125 0.7386591097139575
vt 0.289665625 0.7386591097139575
vt 0.2905484375 0.7207419222139575
vt 0.311640625 0.7207403597139574
vt 0.5125935788265481 0.845676850663645
vt 0.5079193786574705 0.8662429955544606
vt 0.49102369955095215 0.8602174044032982
vt 0.49475994319057714 0.84375
vt 0.22277901118575932 0.7449347275668197
vt 0.2265089865843626 0.7284659034199742
vt 0.24340593497938962 0.7344860829194015
vt 0.24061423169311363 0.7468546299541052
vt 0.038306339962147995 0.640625
vt 0.05098602746214799 0.640625
vt 0.05009540246214799 0.6585421874999999
vt 0.039157902462147995 0.65854375
vt 0.007904996501112448 0.65395625
vt 0.018842496501112447 0.65395625
vt 0.01973624650111245 0.671871875
vt 0.007056559001112447 0.671875
vt 0.25623876459822814 0.9406437203391084
vt 0.25903030411085426 0.9530123007850246
vt 0.24213158198963822 0.9590319560701681
vt 0.2384033321342998 0.9425627375732576
vt 0.44591042761295996 0.827282400095457
vt 0.43882617284403547 0.813053053875703
vt 0.4537884528979099 0.803156796479459
vt 0.462806573669 0.8212564585021642
vt 0.1968 0.8730067503767133
vt 0.1766766010710195 0.875
vt 0.174010394289959 0.8572607942676707
vt 0.19591554425610438 0.8550894896708701
vt 0.289665625 0.7386591097139575
vt 0.26775876615837224 0.7364892056960564
vt 0.27042497318076963 0.71875
vt 0.2905483720826325 0.7207432498970598
vt 0.5079193786574705 0.8662429955544606
vt 0.4989007661766801 0.8843424114963344
vt 0.48393902731023697 0.8744467174223625
vt 0.4910224724580744 0.8602169667789838
vt 0.2265089865843626 0.7284659034199742
vt 0.23358872185766935 0.71423430800932
vt 0.24855484007122497 0.7241244140360237
vt 0.24340704558413231 0.7344864786145145
vt 0.05098602746214799 0.640625
vt 0.0625 0.6417654243706823
vt 0.059827649990032344 0.6595040255470366
vt 0.050095429255557475 0.6585416484824096
vt 0.018842496501112447 0.65395625
vt 0.02857292027962991 0.6529915834223231
vt 0.03125 0.6707296321753656
vt 0.019736285808030656 0.6718726629250422
vt 0.25903030411085426 0.9530123007850246
vt 0.26417768886833737 0.9633745670191111
vt 0.24921210564988439 0.9732650967671672
vt 0.2421329288971763 0.9590314762753633
vt 0.43882617284403547 0.813053053875703
vt 0.42888935450111176 0.801431399341586
vt 0.4409567402751573 0.7881593087538661
vt 0.4537869828943495 0.8031577687599908
vt 0.32148816377268646 0.6555434174946113
vt 0.3027714266973828 0.6492831473520491
vt 0.30757360034647996 0.6319997975750686
vt 0.3280388727514376 0.6388449080919658
vt 0.15616246392380861 0.9236729962052401
vt 0.13569666136729847 0.9305165214894484
vt 0.13089533096470884 0.9132313179464924
vt 0.14961403474385848 0.9069720020830415
vt 0.4989007661766801 0.8843424114963344
vt 0.4860713550992748 0.8993395258991406
vt 0.4740042378826678 0.8860679833272721
vt 0.48393938126396807 0.87444695152736
vt 0.23358872185766935 0.71423430800932
vt 0.24352172438178385 0.702609391934502
vt 0.2555934666120131 0.7158775201941768
vt 0.24855498256842726 0.7241245082028891
vt 0.036918992263246 0.7568654489667254
vt 0.047198525019467315 0.7534180969250955
vt 0.05200854527729489 0.770699601402826
vt 0.043476096606911104 0.7735626980006851
vt 0.2778559886884569 0.5701780653774517
vt 0.2863877022532914 0.5730433513400774
vt 0.2815717287921514 0.5903232822970983
vt 0.27129318266153524 0.5868729893142695
vt 0.26417768886833737 0.9633745670191111
vt 0.27121694624705833 0.9716208925851604
vt 0.25914488978361877 0.9848903246842295
vt 0.24921274422800155 0.9732646747404562
vt 0.42888935450111176 0.801431399341586
vt 0.4165694440237342 0.792817151986793
vt 0.42486575464320897 0.7769136532645278
vt 0.44095692998671143 0.7881591001031295
vt 0.3027714266973828 0.6492831473520491
vt 0.2836068419768172 0.6450354039704498
vt 0.2865497419227734 0.6273388678906263
vt 0.30757388477231845 0.6319987739071191
vt 0.13569666136729847 0.9305165214894484
vt 0.11467063166563912 0.9351751349085728
vt 0.11173096772965092 0.9174795581454773
vt 0.13089588183702566 0.9132333011343432
vt 0.4860713550992748 0.8993395258991406
vt 0.4699831563376382 0.9105865029131534
vt 0.46168440376597364 0.8946849597523492
vt 0.4740045625282469 0.8860683403758982
vt 0.24352172438178388 0.702609391934502
vt 0.25583880621632044 0.6939911005295027
vt 0.2641412331416888 0.7098931550204084
vt 0.2555936563920551 0.7158777287826217
vt 0.047198525019467315 0.7534180969250955
vt 0.05738558924667459 0.7511525916978536
vt 0.060336136847418474 0.7688465264209345
vt 0.05200867687207419 0.7707000741982917
vt 0.2863877022532914 0.5730433513400774
vt 0.2947147038864466 0.5748989564607672
vt 0.2917580694363433 0.5925919600279533
vt 0.28157164095411535 0.5903235974639508
vt 0.27121694624705833 0.9716208925851604
vt 0.2797656756103127 0.9776065435754653
vt 0.27146416523911954 0.9935082394568683
vt 0.25914498324522905 0.984890221952562
vt 0.4165694440237342 0.792817151986793
vt 0.4022977563651796 0.787632156758513
vt 0.4061480719924344 0.7701109615514337
vt 0.4248660948264238 0.7769130011549854
vt 0.2836068419768172 0.6450354039704498
vt 0.26381172622140064 0.6428478228016046
vt 0.2648055197990718 0.6249360998757485
vt 0.2865497074415939 0.627339075236254
vt 0.11467063166563912 0.9351751349085728
vt 0.09292778817908523 0.9375760476765053
vt 0.0919355523858346 0.9196642383882662
vt 0.111731029813862 0.9174799318670819
vt 0.4699831563376382 0.9105865029131534
vt 0.4512657640202685 0.9173902771582539
vt 0.4474124500309927 0.8998697411158232
vt 0.46168378396433996 0.8946837721277823
vt 0.25583880621632044 0.6939911005295027
vt 0.27010918065233525 0.688802492084403
vt 0.273963398349757 0.7063212434385174
vt 0.2641409518996126 0.7098926163433612
vt 0.05738558924667459 0.7511525916978536
vt 0.06777340379399133 0.75
vt 0.06877645159274687 0.767909559060958
vt 0.060336061091227 0.7688460721238723
vt 0.2947147038864466 0.5748989564607672
vt 0.3031532967143765 0.5758375
vt 0.30214695416180876 0.5937485222632475
vt 0.29175788790879975 0.5925930463196576
vt 0.2797656756103127 0.9776065435754653
vt 0.2895882507704647 0.9811775624657222
vt 0.28573413060710645 0.9986979211858071
vt 0.2714641030413318 0.9935083585978753
vt 0.4022977563651796 0.787632156758513
vt 0.386468125935854 0.7863334907579087
vt 0.3855910437583998 0.7684174104283968
vt 0.4061479014039998 0.7701117378289009
vt 0.26381172622140064 0.6428478228016046
vt 0.24318672622140064 0.6428478228016046
vt 0.24221485122140068 0.6249353228016046
vt 0.26480547622140066 0.6249368853016046
vt 0.09292778817908523 0.9375760476765053
vt 0.07033716317908523 0.9375760476765053
vt 0.07131060067908523 0.9196651101765053
vt 0.09193560067908522 0.9196651101765053
vt 0.4512657640202685 0.9173902771582539
vt 0.43071086482893306 0.9190893193101849
vt 0.43158316830718435 0.9011721886385312
vt 0.4474125127351034 0.8998700262235606
vt 0.27010918065233525 0.688802492084403
vt 0.2859384967234807 0.6875
vt 0.2850657450015103 0.7054162918024721
vt 0.27396356037469094 0.706321979897834
vt 0.06777340379399133 0.75
vt 0.07891402879399131 0.75
vt 0.07795152879399131 0.7679125
vt 0.06877652879399132 0.7679109375
vt 0.3031532967143765 0.5758375
vt 0.3123282967143765 0.5758375
vt 0.3132876717143765 0.59375
vt 0.3021470467143765 0.593746875
vt 0.2895882507704647 0.9811775624657222
vt 0.3006920236347309 0.9820829649007808
vt 0.30156386348097985 0.9999990217503334
vt 0.2857346057045723 0.9986957614508544
vt 0.386468125935854 0.7863334907579087
vt 0.3694363403308337 0.7894210046437478
vt 0.36410064869061864 0.7722949703258205
vt 0.38559100780494504 0.7684166760103457
vt 0.24318672622140064 0.6428478228016046
vt 0.22147422714714515 0.6451955951136825
vt 0.2186380867725664 0.6274837823275723
vt 0.24221488767564203 0.6249359946849213
vt 0.07033716317908523 0.9375760476765053
vt 0.04676076412370621 0.9350245446223372
vt 0.0496000820891503 0.9173131601012116
vt 0.07131064423548508 0.9196643087527309
vt 0.43071086482893306 0.9190893193101849
vt 0.409217926352312 0.9152165623440061
vt 0.4145506034690104 0.8980892033286951
vt 0.43158315105656947 0.9011725429665014
vt 0.2859384967234807 0.6875
vt 0.3029712943383562 0.6905819260700603
vt 0.2976396840216219 0.707709431754244
vt 0.2850657191089201 0.7054168233387487
vt 0.07891402879399131 0.75
vt 0.09162060263027724 0.751379613317388
vt 0.08879204115999953 0.7690934175149478
vt 0.07795157172681039 0.7679117010035101
vt 0.3123282967143765 0.5758375
vt 0.3231690672059928 0.5746585578382479
vt 0.3259944965723569 0.5923725454497037
vt 0.31328765612989995 0.5937497090220862
vt 0.3006920236347309 0.9820829649007808
vt 0.3132659551452099 0.9797902377185186
vt 0.3185967233320835 0.9969180656781853
vt 0.3015639110850395 1
vt 0.3694363403308337 0.7894210046437478
vt 0.3515394046032131 0.7974428403321308
vt 0.3424652760500243 0.7819695645395228
vt 0.36410047402488877 0.772294409699104
vt 0.22147422714714515 0.6451955951136825
vt 0.19828383780631287 0.650083932481399
vt 0.19378952580036254 0.632717182531237
vt 0.21863788974036394 0.627482551853399
vt 0.04676076412370621 0.9350245446223372
vt 0.021913525123338728 0.9297845777215717
vt 0.02641063602754563 0.9124200912480845
vt 0.04960025460930006 0.917312083937588
vt 0.409217926352312 0.9152165623440061
vt 0.38758079630995423 0.9055457504065265
vt 0.39665218223703147 0.8900706885207105
vt 0.41455057868747736 0.8980892829214033
vt 0.3029712943383562 0.6905819260700603
vt 0.32087016779413974 0.6985994372339969
vt 0.31179835220916735 0.7140742663387196
vt 0.29763956634730643 0.7077098097765276
vt 0.09162060263027724 0.751379613317388
vt 0.10681010117620526 0.7545897159517675
vt 0.10232168526720284 0.7719588761543633
vt 0.08879183207455935 0.7690947269079331
vt 0.3231690672059928 0.5746585578382479
vt 0.3367011572049027 0.5717974362358157
vt 0.3411831921447741 0.5891662739611957
vt 0.3259945457932178 0.5923728540391631
vt 0.3132659551452099 0.9797902377185186
vt 0.3274264127915948 0.97342572169254
vt 0.3364963192585995 0.9889021358229526
vt 0.31859673580953896 0.9969181057684131
vt 0.3515394046032131 0.7974428403321308
vt 0.33772157749108656 0.8075403048234417
vt 0.3254179006353273 0.7944851138102258
vt 0.3424644877405407 0.7819682203079552
vt 0.19828383780631287 0.650083932481399
vt 0.17805262154638296 0.65625
vt 0.17196112724856238 0.6393773167547245
vt 0.1937893124107184 0.6327163579590694
vt 0.02191352512333873 0.9297845777215717
vt 0.0000875360761913857 0.923121780657916
vt 0.0061806019311781354 0.90625
vt 0.02641088189902758 0.9124191418758957
vt 0.38758079630995423 0.9055457504065265
vt 0.3705316611047633 0.8930297810571265
vt 0.38283384478488225 0.8799736709333609
vt 0.3966527039113739 0.8900697985858319
vt 0.32087016779413974 0.6985994372339969
vt 0.3346895601784313 0.7086947593874939
vt 0.32238882914809686 0.7217505960180309
vt 0.31179765011424154 0.7140754639820018
vt 0.10681010117620526 0.7545897159517675
vt 0.11933100773675401 0.758366520476446
vt 0.11324707474197632 0.7752410245212014
vt 0.10232215521626076 0.7719570575571925
vt 0.3367011572049027 0.5717974362358157
vt 0.3476269086066532 0.5685162562129727
vt 0.35370681733846476 0.5853931884764305
vt 0.34118343485060415 0.5891672144978566
vt 0.3274264127915948 0.97342572169254
vt 0.3380161611508327 0.9657514410615204
vt 0.35031686355241315 0.9788083117915148
vt 0.3364966881315217 0.9889027652484188
vt 0.33772157749108656 0.8075403048234417
vt 0.33004324900844595 0.8164427025777082
vt 0.3154472464239358 0.8060140051968852
vt 0.32541890085199515 0.794486175120581
vt 0.14846906490614686 0.71875
vt 0.133240625 0.7181406820078988
vt 0.13327031358383012 0.7002025271463199
vt 0.14994122425451417 0.7008726885569687
vt 0.027991630207058235 0.8303505384139788
vt 0.011334875576730335 0.8313101708048845
vt 0.010993368062039884 0.8133751224216759
vt 0.02621041255082425 0.8125
vt 0.3705316611047633 0.8930297810571265
vt 0.36056029283995356 0.8815037901965467
vt 0.37515360785169405 0.8710729814677067
vt 0.3828334637995946 0.8799740752669328
vt 0.3346895601784313 0.7086947593874939
vt 0.34237002338397765 0.7175953154943195
vt 0.3277775429902592 0.7280286958958707
vt 0.3223878107409265 0.7217516769422139
vt 0.390625 0.8440433313019297
vt 0.3988932358949001 0.84375
vt 0.39886979890681495 0.8616871082144869
vt 0.3920442391163496 0.8619245674048646
vt 0.39203332432743876 0.5755792994341729
vt 0.39885904937855826 0.5758119125769152
vt 0.3988918629531127 0.59375
vt 0.390625 0.5934620208469725
vt 0.3380161611508327 0.9657514410615204
vt 0.34340554621001596 0.9594741568756436
vt 0.3579970002743579 0.9699073240398974
vt 0.35031635785984866 0.9788077750122133
vt 0.33004324900844595 0.8164427025777083
vt 0.32462036002205036 0.824032576822836
vt 0.3106839772371848 0.8127366890283726
vt 0.3154470436134187 0.8060138602908058
vt 0.133240625 0.7181406820078988
vt 0.125 0.7181406820078988
vt 0.12548125 0.7002094320078989
vt 0.1332703125 0.7002031820078989
vt 0.011334875576730335 0.8313101708048845
vt 0.0035468750000000014 0.8314387851343903
vt 0.0027555461678572084 0.8135181584792038
vt 0.010993382192687907 0.813375864524983
vt 0.36056029283995356 0.8815037901965467
vt 0.3557952955436136 0.8747804947875603
vt 0.36972901647866563 0.8634842311887095
vt 0.37515343683303903 0.8710731037060658
vt 0.34237002338397765 0.7175953154943195
vt 0.347795390600787 0.7251834184574055
vt 0.3338630595671014 0.7364816768493195
vt 0.32777722436903783 0.7280289237047364
vt 0.3988932358949001 0.84375
vt 0.4093072983949001 0.84375
vt 0.4097354233949001 0.8616828125
vt 0.3988697983949001 0.8616874999999999
vt 0.39885904937855826 0.5758119125769152
vt 0.40972467437855825 0.5758119125769152
vt 0.40930592437855823 0.5937447250769152
vt 0.39889186187855824 0.5937494125769153
vt 0.34340554621001596 0.9594741568756436
vt 0.34948924269881465 0.9510218592716732
vt 0.36342338810775554 0.9623198927713922
vt 0.35799817064584216 0.9699081608777674
vt 0.32462036002205036 0.824032576822836
vt 0.3176257721510074 0.8301308012047292
vt 0.308547529267199 0.8146585058947822
vt 0.3106846393551187 0.812737225696316
vt 0.5302037478791333 0.7144790465405806
vt 0.5274606786189491 0.715334741638287
vt 0.523560124220557 0.6978253405893586
vt 0.5237634615447659 0.6977373585079669
vt 0.0035468750000000014 0.8314387851343903
vt 0.0033171875000000024 0.8314387851343903
vt 0 0.8138090976343902
vt 0.0027562500000000018 0.8135340976343902
vt 0.3557952955436136 0.8747804947875603
vt 0.3536586578442583 0.8728591873139633
vt 0.36273446272279536 0.8573868577822232
vt 0.369729631263493 0.8634837327740005
vt 0.347795390600787 0.7251834184574055
vt 0.354790948536344 0.7312805300086174
vt 0.34571737174489414 0.7467541180812809
vt 0.3338626449642843 0.7364820130665503
vt 0.3418078077724398 0.625
vt 0.3568164961748163 0.6295593758009486
vt 0.352914893162963 0.6470687893905122
vt 0.3353662674127791 0.6417427242734163
vt 0.36661583772026124 0.9832564152442202
vt 0.38416493904875637 0.9779319194050712
vt 0.3880649863962413 0.9954413171139811
vt 0.37305608678396857 1
vt 0.34948924269881465 0.9510218592716732
vt 0.36134334659569084 0.9407491353847982
vt 0.3704180005814758 0.9562238865331909
vt 0.3634237747986714 0.9623202063067252
vt 0.3176257721510074 0.8301308012047292
vt 0.3050294998259192 0.8347291989042374
vt 0.30101259848048434 0.8172466009251992
vt 0.3085477230770646 0.8146588362101871
vt 0.5274606786189491 0.715334741638287
vt 0.5195679968975246 0.7164217797721391
vt 0.5178938088489112 0.6985628835858917
vt 0.5235604050683654 0.6978266013016601
vt 0.25750992146888874 0.5828503651553795
vt 0.2518434146983466 0.5821146945271048
vt 0.2535176689638766 0.5642550496090314
vt 0.2614074032226468 0.565342381701768
vt 0.3536586578442583 0.8728591873139633
vt 0.3461230595462029 0.8702725224824666
vt 0.35013838867484265 0.8527900559407218
vt 0.3627347082865544 0.8573864391479036
vt 0.354790948536344 0.7312805300086174
vt 0.3673884198363707 0.73587564205683
vt 0.3633760786263266 0.7533592871724746
vt 0.3457169353350894 0.7467548623110047
vt 0.36134334659569084 0.9407491353847982
vt 0.37900316611260154 0.9341438333210924
vt 0.3830152412693805 0.9516275309036696
vt 0.37041733439620683 0.9562227505062666
vt 0.3050294998259192 0.8347291989042374
vt 0.2826663455446986 0.8378374233346715
vt 0.2811975152980183 0.8199600412651524
vt 0.3010126840616733 0.8172469733967618
vt 0.5195679968975246 0.7164217797721391
vt 0.4995997513450412 0.7175483540287793
vt 0.4989904560160781 0.6996198343385166
vt 0.5178936485341035 0.6985611734760208
vt 0.2518434146983466 0.5821146945271048
vt 0.2329401996826466 0.5810564642920566
vt 0.23354792876071148 0.5631280303397852
vt 0.25351778633806565 0.5642537975522909
vt 0.3461230595462029 0.8702725224824666
vt 0.3263077593034842 0.8675607193386318
vt 0.3277767143886746 0.8496822880939674
vt 0.3501384268193564 0.8527898898621353
vt 0.3673884198363707 0.73587564205683
vt 0.3897521147913218 0.7389799739459038
vt 0.38828484861439927 0.7568573965741615
vt 0.36337619472127214 0.7533587812925602
vt 0.37900316611260154 0.9341438333210924
vt 0.4039119732909053 0.9306465454833945
vt 0.40537776300662504 0.9485257821852378
vt 0.38301527761543264 0.9516276892913763
vt 0.2826663455446986 0.8378374233346715
vt 0.24643979638161378 0.8394162596509211
vt 0.24611792371614002 0.8214804522384291
vt 0.2811974646725076 0.8199594250934752
vt 0.4995997513450412 0.7175483540287793
vt 0.46449290390694553 0.7181783692732597
vt 0.46436008767044556 0.700240364625969
vt 0.498990477363197 0.6996204624776527
vt 0.2329401996826466 0.5810564642920566
vt 0.19830822177735322 0.5804379882478381
vt 0.19844103789242867 0.5625
vt 0.23354791217119575 0.5631285197421321
vt 0.3263077593034842 0.8675607193386318
vt 0.29122829617345186 0.8660379183802986
vt 0.2915501393811709 0.8481037524511386
vt 0.32777668840461466 0.8496826043420498
vt 0.3897521147913218 0.7389799739459038
vt 0.42597880131424065 0.7405556553696309
vt 0.42565849063804906 0.7584914907452552
vt 0.38828479087829537 0.7568581000407485
vt 0.4039119732909053 0.9306465454833945
vt 0.44128416786570024 0.9290145195342063
vt 0.4416044799756661 0.9469504351941989
vt 0.4053777957268434 0.9485261812960538
vt 0.24643979638161378 0.8394162596509211
vt 0.1922960463816138 0.8394162596509211
vt 0.1925210463816138 0.8214787596509211
vt 0.24611792138161379 0.8214803221509211
vt 0.46449290390694553 0.7181783692732597
vt 0.41089446640694555 0.7181783692732597
vt 0.41098821640694555 0.7002408692732598
vt 0.46436009140694556 0.7002408692732598
vt 0.19830822177735322 0.5804379882478381
vt 0.14493634677735323 0.5804379882478381
vt 0.14484259677735323 0.562500488247838
vt 0.1984410342773532 0.562500488247838
vt 0.29122829617345186 0.8660379183802986
vt 0.23762985867345188 0.8660379183802986
vt 0.23740642117345187 0.8481004183802986
vt 0.2915501711734519 0.8481019808802985
vt 0.42597880131424065 0.7405556553696309
vt 0.48012255131424064 0.7405556553696309
vt 0.4803459888142407 0.7584931553696309
vt 0.4256584888142406 0.7584915928696309
vt 0.44128416786570024 0.9290145195342063
vt 0.49597166786570024 0.9290145195342063
vt 0.49574823036570015 0.9469520195342064
vt 0.4416044803657002 0.9469504570342063
vt 0.3568164961748163 0.6295593758009486
vt 0.37546474873224595 0.63234180590375
vt 0.3737903205939342 0.6502027614844933
vt 0.3529148334894641 0.6470690571901752
vt 0.38416493904875637 0.9779319194050712
vt 0.4050407431839171 0.974800383902952
vt 0.406713497012688 0.992660793297193
vt 0.38806488299421965 0.9954408528870217
vt 0.37546474873224595 0.63234180590375
vt 0.4005758096464158 0.6337958750322559
vt 0.3999665463405778 0.6517234474669148
vt 0.3737904439102032 0.6502014460823258
vt 0.4050407431839171 0.974800383902952
vt 0.43121694255477905 0.9732800635108834
vt 0.43182464828828976 0.9912078013648841
vt 0.40671356918494 0.9926615638983093
vt 0.4005758096464158 0.6337958750322559
vt 0.4379774825872209 0.6344735897688569
vt 0.4378446661048492 0.6524116276232926
vt 0.39996653718759334 0.651723716793479
vt 0.4379774825872209 0.6344735897688569
vt 0.4926649825872209 0.6344735897688569
vt 0.4927587325872209 0.652411089768857
vt 0.4378446700872209 0.652411089768857
vt 0.46909509977973873 0.9725937149246242
vt 0.5240091622797387 0.9725937149246242
vt 0.5239169747797388 0.9905312149246243
vt 0.46922791227973876 0.9905312149246243
vt 0.43121694255477905 0.9732800635108834
vt 0.46909509977973873 0.9725937149246242
vt 0.46922791626211047 0.9905317527790599
vt 0.431824652770047 0.9912079335798101
vt 0.22231020361838622 0.7543337403490789
vt 0.2764539536183862 0.7543337403490789
vt 0.2762289536183862 0.7722712403490788
vt 0.22263207861838621 0.7722696778490789
vt 0.34248039411122233 0.7641338000430871
vt 0.2762289699744842 0.7722699364045976
vt 0.2764539536183862 0.7543337403490789
vt 0.002264656049616398 0.9674458594035927
vt 0.06851542971970352 0.959299264883485
vt 0.06829200821898312 0.9772354804657936
vt 0.06398265774597575 0.9898678279357753
vt 0.41089446640694555 0.7181783692732597
vt 0.3447962521208667 0.7088644942526985
vt 0.41098822457914463 0.7002393056591673
vt 0.1922960463816138 0.8394162596509211
vt 0.12626960588877764 0.8296161999569129
vt 0.19252103002551577 0.8214800635954023
vt 0.2762315024397943 0.8839620816197015
vt 0.34248221771330184 0.8921039880787376
vt 0.2764549239405147 0.90189829720201
vt 0.11898330016570688 0.609375
vt 0.11888954199350779 0.5914359363859074
vt 0.18508151445178575 0.6000611249794388
vt 0.38588677542085537 0.6116890636140926
vt 0.38598053359305445 0.59375
vt 0.4520787478791333 0.6030638750205612
vn 0.9227352734105532 0.3824257122750143 -0.04806443378319886
vn 0.37996409688976174 0.9177299574426081 -0.11575409404049948
vn -0.37996978908643597 0.9177119984765678 -0.11587772535631428
vn -0.9227431261947687 0.38238583400875303 -0.04823066462050366
vn -0.9227352734105534 -0.38242571227501415 0.048064433783198836
vn -0.37991435114451133 -0.9178855107292068 0.11467900848816318
vn 0.37989435770301255 -0.9179473336827535 0.11424959330404277
vn 0.9227221494325029 -0.38249203003837434 0.047787884487443553
vn 0.9226798721279654 0.35752860991244073 -0.1443438487224149
vn 0.37982930652260194 0.8576653054687073 -0.3466120622566796
vn -0.37983383484661604 0.8576272379843219 -0.346701281470226
vn -0.9226862720815749 0.35746379365817404 -0.14446341936875395
vn -0.9226798721279652 -0.3575286099124409 0.14434384872241499
vn -0.37978753905068974 -0.8580146376654134 0.34579228842429466
vn 0.379769557737646 -0.8581640466261322 0.3454410978647652
vn 0.9226686445538071 -0.35764188647845285 0.14413484448034727
vn 0.9226170017367885 0.3071825557974667 -0.23327397094394206
vn 0.3796784957761325 0.73659068881339 -0.5597127808068968
vn -0.3796823806854622 0.736540358657058 -0.5597763748733526
vn -0.9226226013158587 0.30710221083972955 -0.23335759605915615
vn -0.9226170017367884 -0.3071825557974668 0.23327397094394212
vn -0.3796410334701246 -0.7370741233363071 0.5591014419707305
vn 0.37962394192011767 -0.7372935489869605 0.5588236621182423
vn 0.9226067753895697 -0.30732881864287265 0.23312171764303014
vn 0.9225379080507418 0.23267043888369174 -0.30787704539155136
vn 0.3794878392625602 0.5576621322803292 -0.7382424575113449
vn -0.3794906466362388 0.5576161015555084 -0.7382757834316702
vn -0.9225420183048465 0.2325991249886801 -0.30791861183845437
vn -0.922537908050742 -0.23267043888369174 0.30787704539155136
vn -0.3794597998924059 -0.5581206771780025 0.7379102723041489
vn 0.3794463948129878 -0.5583391338023882 0.7377518858859157
vn 0.9225301587018718 -0.23280459134995743 0.30779884426663884
vn 0.922477948427314 0.13733511786369204 -0.3607956486249518
vn 0.3793349175914794 0.3291838139100559 -0.8647213637672516
vn -0.37933448517012996 0.3291918651669178 -0.8647184884508011
vn -0.9224773117839566 0.1373472519238207 -0.3607926573987051
vn -0.922477948427314 -0.137335117863692 0.3607956486249517
vn -0.3793392860243727 -0.3291024476231538 0.8647504177778513
vn 0.3793414068404985 -0.32906292540425586 0.8647645275915662
vn 0.9224791611179322 -0.13731199699014981 0.36080134809301
vn 0.9225083976068682 0.028922509796653867 -0.38489186114007534
vn 0.37938694497747266 0.06975729535459038 -0.9226047180268876
vn -0.3793806939325503 0.06988160990045911 -0.92259788080668
vn -0.9224993336487866 0.02910194005224905 -0.384900060408855
vn -0.9225083976068682 -0.02892250979665385 0.3848918611400751
vn -0.37944783541882043 -0.0685401163058959 0.9226709015964175
vn 0.37947598819592326 -0.06797346296975264 0.9227012423935645
vn 0.9225250975167989 -0.028590356896662582 0.38487665029739365
vn 0.922672705540733 -0.07953713984021203 -0.37729156078049575
vn 0.37975967469390925 -0.19004539402359721 -0.9053537086060852
vn -0.379748293269785 -0.18981096612009077 -0.905407660062164
vn -0.922656882018895 -0.07922045939314715 -0.3773968691930417
vn -0.9226727055407331 0.07953713984021198 0.37729156078049547
vn -0.3798606488387532 0.19214494317167302 0.9048680612538802
vn 0.3799020049927362 0.1930153802979541 0.9046654241049205
vn 0.922699496625267 0.08007806430463583 0.37711157837528875
vn 0.9229287396623226 -0.17431731629461067 -0.343243375384233
vn 0.3803677277812988 -0.4179788091662647 -0.8249933980041556
vn -0.38035574737353495 -0.4177273683759938 -0.8251262637618478
vn -0.922913077618543 -0.17400432030572693 -0.34344424245517846
vn -0.9229287396623228 0.17431731629461053 0.3432433753842327
vn -0.3804612662552685 0.41996350016287726 0.8239416747624694
vn 0.3804939998181162 0.42066733624429375 0.8235674279131865
vn 0.9229523987974054 0.17479500981369295 0.3429366910937738
vn 0.9226326687529435 -0.24758204323764343 -0.2957229960894066
vn 0.3798110776350824 -0.5955935675774787 -0.7078219038472947
vn -0.37984444652732535 -0.5961310334355191 -0.7073513889273493
vn -0.9226785793598397 -0.2482455310562615 -0.29502270336552594
vn -0.9226326687529435 0.24758204323764346 0.29572299608940666
vn -0.3795222110434727 0.5910529805244906 0.7117719196047213
vn 0.37940762183973337 0.5893036434841534 0.7132819023823749
vn 0.9225565533181472 0.24650789986555707 0.2968556235505963
vn 0.9232153893604512 -0.31121422271386673 -0.22543081517094005
vn 0.381039993378809 -0.7479534151651722 -0.5434834056239738
vn -0.38102574353600105 -0.7477223402989001 -0.5438112582328297
vn -0.9231951486234212 -0.3109181904849876 -0.22592165983747692
vn -0.9232153893604509 0.3112142227138673 0.2254308151709406
vn -0.38117553797423454 0.750197133829276 0.5402864699808726
vn 0.3812362118378777 0.7512301780849742 0.5388062456188897
vn 0.9232518712929647 0.3117591470254467 0.2245266496432105
vn 0.9235870421820701 -0.3311631602775365 -0.19317851016189613
vn 0.3818827985135038 -0.800325524031769 -0.4622170310392824
vn -0.38183284541467627 -0.8013356750479323 -0.4605049555194892
vn -0.9235470350381835 -0.332081145819865 -0.19178891173148116
vn -0.9235870421820701 0.3311631602775368 0.1931785101618964
vn -0.3820505985538046 0.7966517441184455 0.46838375157312895
vn 0.38207516082237397 0.7960710743635652 0.4693499931226127
vn 0.9236168645759306 0.3304365737707453 0.19427701404329337
vn 0.9210539658518441 -0.27664991267979033 -0.27408833941423766
vn 0.37485308256453204 -0.6694466359611295 -0.641347306918954
vn -0.34090703615134804 -0.8345568140899976 -0.43277860016231945
vn -0.9205518247422885 -0.28206665576485523 -0.2702272000914668
vn -0.9210539658518438 0.2766499126797915 0.2740883394142374
vn -0.37621094385657683 0.6561913278065956 0.6541240456014139
vn 0.37625282199851845 0.6557578282311257 0.6545345557354086
vn 0.9211411787596361 0.2756600866807926 0.27479163998281697
vn 0.9226437627684396 -0.147455240155331 -0.35635016370871636
vn 0.38057648357857365 -0.3356333264815434 -0.8616912499856904
vn -0.38126334371371823 -0.3179538597215393 -0.8680688946324542
vn -0.9230008002637208 -0.13966057801425608 -0.35855884546508576
vn -0.9226437627684396 0.14745524015533076 0.35635016370871647
vn -0.3793272964354055 0.36131685328445573 0.851798646225518
vn 0.37921745615671354 0.3633140197409757 0.8509976756758416
vn 0.9224740853146265 0.15075680590950855 0.35540673515692695
vn 0.9236296035326912 -0.06217156083144044 -0.37821032839126195
vn 0.38212416670265836 -0.14788634662112948 -0.9122010467571579
vn -0.3821447886632104 -0.14689164240437216 -0.9123531146926045
vn -0.9236474557499145 -0.061330773668607216 -0.37830399639432805
vn -0.9236296035326914 0.062171560831440445 0.378210328391262
vn -0.38204595649685635 0.1515003204860902 0.9116405761137523
vn 0.3820331333730915 0.15207106492689698 0.911550918060608
vn 0.9236149338208535 0.06284019437053737 0.3781356423223993
vn 0.9238275137576037 -0.023196962218120714 -0.382105516537377
vn 0.3825599414373018 -0.055778322523309734 -0.9222454499448474
vn -0.3825608218219977 -0.05568774486835648 -0.9222505585134416
vn -0.923828360375595 -0.023110315613694067 -0.3821087199711302
vn -0.9238275137576037 0.023196962218120714 0.382105516537377
vn -0.3825559670358684 0.05618325814835047 0.922222518478641
vn 0.38255519693643714 0.05626098583066788 0.9222180993508453
vn 0.9238267127823985 0.023278290613869185 0.3821025071047873
vn 0.38265367528887895 -0.01247044219024676 -0.9238076925743219
vn -0.38265373044419676 -0.012458880175670203 -0.9238078257310383
vn -0.9238672055356484 -0.005165759047852019 -0.3826783263646004
vn -0.9238671510702589 0.00517715856330512 0.3826783038042972
vn -0.382653414698579 0.012524924454908342 0.9238070634536826
vn 0.3826533618845526 0.012535937552833906 0.9238069359493473
vn 0.9238670975746588 0.005188330721598519 0.3826782816456915
vn -0.9227352734105532 0.3824257122750145 0.04806443378319882
vn -0.37996409688976124 0.917729957442608 0.11575409404050066
vn 0.37996978908643647 0.9177119984765678 0.11587772535631426
vn 0.9227431261947688 0.3823858340087529 0.04823066462050391
vn 0.9227352734105536 -0.3824257122750141 -0.04806443378319878
vn 0.3799143511445109 -0.9178855107292069 -0.11467900848816416
vn -0.37989435770301305 -0.9179473336827532 -0.11424959330404387
vn -0.9227221494325031 -0.38249203003837384 -0.04778788448744396
vn -0.9226798721279653 0.357528609912441 0.14434384872241499
vn -0.3798293065226018 0.8576653054687073 0.3466120622566798
vn 0.37983383484661637 0.8576272379843219 0.346701281470226
vn 0.9226862720815747 0.35746379365817427 0.14446341936875384
vn 0.9226798721279653 -0.3575286099124408 -0.14434384872241485
vn 0.3797875390506888 -0.8580146376654137 -0.34579228842429477
vn -0.3797695577376457 -0.8581640466261329 -0.3454410978647642
vn -0.9226686445538075 -0.35764188647845185 -0.1441348444803471
vn -0.9226170017367885 0.3071825557974668 0.23327397094394212
vn -0.37967849577613194 0.7365906888133902 0.5597127808068966
vn 0.3796823806854625 0.7365403586570579 0.5597763748733527
vn 0.9226226013158589 0.30710221083972933 0.2333575960591559
vn 0.9226170017367885 -0.30718255579746667 -0.23327397094394212
vn 0.37964103347012446 -0.7370741233363077 -0.55910144197073
vn -0.3796239419201181 -0.7372935489869604 -0.5588236621182423
vn -0.9226067753895697 -0.30732881864287304 -0.2331217176430296
vn -0.9225379080507421 0.23267043888369107 0.3078770453915511
vn -0.3794878392625595 0.5576621322803299 0.7382424575113448
vn 0.37949064663623855 0.5576161015555086 0.7382757834316703
vn 0.9225420183048468 0.23259912498868 0.3079186118384538
vn 0.9225379080507418 -0.23267043888369163 -0.30787704539155175
vn 0.37945979989240614 -0.5581206771780027 -0.7379102723041487
vn -0.37944639481298836 -0.5583391338023873 -0.737751885885916
vn -0.9225301587018719 -0.2328045913499572 -0.30779884426663906
vn -0.922477948427314 0.13733511786369165 0.3607956486249517
vn -0.3793349175914796 0.32918381391005574 0.8647213637672515
vn 0.37933448517013013 0.32919186516691823 0.8647184884508011
vn 0.9224773117839569 0.13734725192382094 0.36079265739870464
vn 0.922477948427314 -0.13733511786369185 -0.3607956486249522
vn 0.37933928602437283 -0.32910244762315366 -0.8647504177778513
vn -0.3793414068404986 -0.3290629254042558 -0.8647645275915662
vn -0.9224791611179324 -0.13731199699014973 -0.36080134809300946
vn -0.9225083976068682 0.028922509796653843 0.384891861140075
vn -0.3793869449774728 0.06975729535459038 0.9226047180268876
vn 0.37938069393255025 0.06988160990045907 0.9225978808066799
vn 0.9224993336487866 0.02910194005224889 0.38490006040885477
vn 0.9225083976068682 -0.028922509796653856 -0.3848918611400752
vn 0.3794478354188204 -0.0685401163058957 -0.9226709015964176
vn -0.3794759881959235 -0.06797346296975273 -0.9227012423935644
vn -0.9225250975167988 -0.028590356896663397 -0.3848766502973937
vn -0.9226727055407331 -0.07953713984021189 0.37729156078049525
vn -0.3797596746939089 -0.19004539402359702 0.9053537086060852
vn 0.37974829326978476 -0.1898109661200909 0.9054076600621641
vn 0.9226568820188952 -0.07922045939314727 0.37739686919304155
vn 0.922672705540733 0.07953713984021195 -0.3772915607804955
vn 0.37986064883875303 0.19214494317167313 -0.9048680612538805
vn -0.379902004992736 0.1930153802979539 -0.9046654241049206
vn -0.9226994966252673 0.0800780643046361 -0.3771115783752886
vn -0.9229287396623228 -0.17431731629461059 0.34324337538423283
vn -0.3803677277812996 -0.41797880916626534 0.8249933980041548
vn 0.3803557473735351 -0.4177273683759936 0.8251262637618478
vn 0.9229130776185431 -0.17400432030572688 0.34344424245517824
vn 0.9229287396623226 0.17431731629461072 -0.3432433753842331
vn 0.38046126625526877 0.41996350016287637 -0.8239416747624698
vn -0.38049399981811605 0.4206673362442942 -0.8235674279131864
vn -0.9229523987974056 0.17479500981369303 -0.3429366910937731
vn -0.9226326687529435 -0.24758204323764327 0.29572299608940683
vn -0.3798110776350818 -0.5955935675774784 0.7078219038472953
vn 0.37984444652732496 -0.5961310334355195 0.707351388927349
vn 0.9226785793598395 -0.2482455310562616 0.2950227033655256
vn 0.9226326687529435 0.24758204323764327 -0.29572299608940683
vn 0.3795222110434729 0.5910529805244907 -0.7117719196047211
vn -0.37940762183973326 0.5893036434841535 -0.7132819023823749
vn -0.9225565533181472 0.24650789986555685 -0.29685562355059647
vn -0.9232153893604508 -0.3112142227138665 0.22543081517094116
vn -0.38103999337880934 -0.7479534151651727 0.5434834056239729
vn 0.3810257435360009 -0.7477223402989003 0.5438112582328297
vn 0.923195148623421 -0.31091819048498776 0.22592165983747672
vn 0.9232153893604508 0.31121422271386706 -0.22543081517094068
vn 0.38117553797423515 0.7501971338292757 -0.5402864699808726
vn -0.38123621183787787 0.7512301780849747 -0.5388062456188885
vn -0.9232518712929649 0.31175914702544655 -0.2245266496432101
vn -0.9235870421820703 -0.33116316027753645 0.19317851016189558
vn -0.38188279851350293 -0.8003255240317678 0.4622170310392852
vn 0.3818328454146761 -0.8013356750479323 0.4605049555194891
vn 0.9235470350381834 -0.3320811458198654 0.1917889117314811
vn 0.92358704218207 0.3311631602775369 -0.19317851016189594
vn 0.3820505985538037 0.7966517441184467 -0.4683837515731276
vn -0.3820751608223737 0.7960710743635647 -0.4693499931226136
vn -0.923616864575931 0.33043657377074476 -0.19427701404329284
vn -0.9210539658518441 -0.2766499126797907 0.2740883394142375
vn -0.37485308256453165 -0.6694466359611347 0.6413473069189488
vn 0.3409070361513477 -0.8345568140899978 0.43277860016231945
vn 0.9205518247422887 -0.2820666557648536 0.27022720009146783
vn 0.9210539658518438 0.27664991267979117 -0.27408833941423766
vn 0.37621094385657705 0.6561913278065948 -0.6541240456014146
vn -0.37625282199851817 0.6557578282311257 -0.6545345557354086
vn -0.9211411787596363 0.27566008668079256 -0.27479163998281697
vn -0.9226437627684396 -0.1474552401553311 0.3563501637087162
vn -0.38057648357857365 -0.3356333264815432 0.8616912499856904
vn 0.3812633437137184 -0.3179538597215394 0.8680688946324543
vn 0.9230008002637206 -0.13966057801425646 0.35855884546508576
vn 0.9226437627684396 0.14745524015533082 -0.3563501637087163
vn -0.9224740853146265 0.15075680590950824 -0.35540673515692706
vn -0.9236296035326913 -0.06217156083144031 0.3782103283912621
vn -0.38212416670265814 -0.14788634662112943 0.9122010467571577
vn 0.3821447886632106 -0.14689164240437214 0.9123531146926044
vn 0.9236474557499146 -0.06133077366860742 0.3783039963943282
vn 0.9236296035326912 0.062171560831440396 -0.37821032839126195
vn -0.9236149338208536 0.06284019437053753 -0.3781356423223994
vn -0.9238275137576037 -0.02319696221812084 0.382105516537377
vn -0.3825599414373017 -0.05577832252330977 0.9222454499448476
vn 0.3825608218219977 -0.055687744868356474 0.9222505585134414
vn 0.9238283603755948 -0.023110315613693914 0.3821087199711302
vn 0.9238275137576036 0.023196962218120832 -0.38210551653737723
vn -0.9238267127823988 0.023278290613869254 -0.3821025071047871
vn -0.9238671510702589 -0.005177158563304157 0.3826783038042972
vn -0.38265367528888 -0.012470442190247143 0.9238076925743215
vn 0.3826537304441967 -0.012458880175670248 0.9238078257310385
vn 0.9238672055356484 -0.0051657590478521465 0.38267832636460075
vn 0.9238671510702599 0.005177158563305034 -0.3826783038042949
vn -0.9238670975746578 0.005188330721598611 -0.38267828164569384
vn 0.3793272964354055 0.3613168532844558 -0.851798646225518
vn -0.3792174561567138 0.3633140197409758 -0.8509976756758415
vn 0.3820459564968565 0.15150032048609016 -0.9116405761137524
vn -0.3820331333730917 0.15207106492689698 -0.9115509180606078
vn 0.38255596703586836 0.05618325814835063 -0.9222225184786412
vn 0.3826534146985779 0.012524924454908647 -0.923807063453683
vn -0.3826533618845527 0.012535937552833902 -0.923806935949347
vn -0.38255519693643725 0.05626098583066787 -0.9222180993508451
vn 0.9238671510702611 -0.005177158563305053 -0.3826783038042923
vn 0.8729720415672865 -0.32736451558773244 -0.36159685918969664
vn 0.8729720415672855 -0.32736451558773205 0.3615968591896992
vn -0.3615968591897001 -0.327364515587732 0.8729720415672851
vn -0.8729720415672848 -0.3273645155877318 0.3615968591897013
vn -0.8729720415672847 -0.3273645155877317 -0.36159685918970147
vn -0.3615968591896991 -0.32736451558773183 -0.8729720415672856
vn 0.3615968591896989 -0.3273645155877324 -0.8729720415672856
usemtl m_c3e0e7f1-85df-0856-ad82-12f816e22d01
f 1/1/1 2/2/1 3/3/1 4/4/1
f 4/5/2 3/6/2 5/7/2 6/8/2
f 6/9/3 5/10/3 7/11/3 8/12/3
f 8/13/4 7/14/4 9/15/4 10/16/4
f 10/17/5 9/18/5 11/19/5 12/20/5
f 12/21/6 11/22/6 13/23/6 14/24/6
f 14/25/7 13/26/7 15/27/7 16/28/7
f 16/29/8 15/30/8 2/31/8 1/32/8
f 2/33/9 17/34/9 18/35/9 3/36/9
f 3/37/10 18/38/10 19/39/10 5/40/10
f 5/41/11 19/42/11 20/43/11 7/44/11
f 7/45/12 20/46/12 21/47/12 9/48/12
f 9/49/13 21/50/13 22/51/13 11/52/13
f 11/53/14 22/54/14 23/55/14 13/56/14
f 13/57/15 23/58/15 24/59/15 15/60/15
f 15/61/16 24/62/16 17/63/16 2/64/16
f 17/65/17 25/66/17 26/67/17 18/68/17
f 18/69/18 26/70/18 27/71/18 19/72/18
f 19/73/19 27/74/19 28/75/19 20/76/19
f 20/77/20 28/78/20 29/79/20 21/80/20
f 21/81/21 29/82/21 30/83/21 22/84/21
f 22/85/22 30/86/22 31/87/22 23/88/22
f 23/89/23 31/90/23 32/91/23 24/92/23
f 24/93/24 32/94/24 25/95/24 17/96/24
f 25/97/25 33/98/25 34/99/25 26/100/25
f 26/101/26 34/102/26 35/103/26 27/104/26
f 27/105/27 35/106/27 36/107/27 28/108/27
f 28/109/28 36/110/28 37/111/28 29/112/28
f 29/113/29 37/114/29 38/115/29 30/116/29
f 30/117/30 38/118/30 39/119/30 31/120/30
f 31/121/31 39/122/31 40/123/31 32/124/31
f 32/125/32 40/126/32 33/127/32 25/128/32
f 33/129/33 41/130/33 42/131/33 34/132/33
f 34/133/34 42/134/34 43/135/34 35/136/34
f 35/137/35 43/138/35 44/139/35 36/140/35
f 36/141/36 44/142/36 45/143/36 37/144/36
f 37/145/37 45/146/37 46/147/37 38/148/37
f 38/149/38 46/150/38 47/151/38 39/152/38
f 39/153/39 47/154/39 48/155/39 40/156/39
f 40/157/40 48/158/40 41/159/40 33/160/40
f 41/161/41 49/162/41 50/163/41 42/164/41
f 42/165/42 50/166/42 51/167/42 43/168/42
f 43/169/43 51/170/43 52/171/43 44/172/43
f 44/173/44 52/174/44 53/175/44 45/176/44
f 45/177/45 53/178/45 54/179/45 46/180/45
f 46/181/46 54/182/46 55/183/46 47/184/46
f 47/185/47 55/186/47 56/187/47 48/188/47
f 48/189/48 56/190/48 49/191/48 41/192/48
f 49/193/49 57/194/49 58/195/49 50/196/49
f 50/197/50 58/198/50 59/199/50 51/200/50
f 51/201/51 59/202/51 60/203/51 52/204/51
f 52/205/52 60/206/52 61/207/52 53/208/52
f 53/209/53 61/210/53 62/211/53 54/212/53
f 54/213/54 62/214/54 63/215/54 55/216/54
f 55/217/55 63/218/55 64/219/55 56/220/55
f 56/221/56 64/222/56 57/223/56 49/224/56
f 57/225/57 65/226/57 66/227/57 58/228/57
f 58/229/58 66/230/58 67/231/58 59/232/58
f 59/233/59 67/234/59 68/235/59 60/236/59
f 60/237/60 68/238/60 69/239/60 61/240/60
f 61/241/61 69/242/61 70/243/61 62/244/61
f 62/245/62 70/246/62 71/247/62 63/248/62
f 63/249/63 71/250/63 72/251/63 64/252/63
f 64/253/64 72/254/64 65/255/64 57/256/64
f 65/257/65 73/258/65 74/259/65 66/260/65
f 66/261/66 74/262/66 75/263/66 67/264/66
f 67/265/67 75/266/67 76/267/67 68/268/67
f 68/269/68 76/270/68 77/271/68 69/272/68
f 69/273/69 77/274/69 78/275/69 70/276/69
f 70/277/70 78/278/70 79/279/70 71/280/70
f 71/281/71 79/282/71 80/283/71 72/284/71
f 72/285/72 80/286/72 73/287/72 65/288/72
f 73/289/73 81/290/73 82/291/73 74/292/73
f 74/293/74 82/294/74 83/295/74 75/296/74
f 75/297/75 83/298/75 84/299/75 76/300/75
f 76/301/76 84/302/76 85/303/76 77/304/76
f 77/305/77 85/306/77 86/307/77 78/308/77
f 78/309/78 86/310/78 87/311/78 79/312/78
f 79/313/79 87/314/79 88/315/79 80/316/79
f 80/317/80 88/318/80 81/319/80 73/320/80
f 81/321/81 89/322/81 90/323/81 82/324/81
f 82/325/82 90/326/82 91/327/82 83/328/82
f 83/329/83 91/330/83 92/331/83 84/332/83
f 84/333/84 92/334/84 93/335/84 85/336/84
f 85/337/85 93/338/85 94/339/85 86/340/85
f 86/341/86 94/342/86 95/343/86 87/344/86
f 87/345/87 95/346/87 96/347/87 88/348/87
f 88/349/88 96/350/88 89/351/88 81/352/88
f 89/353/89 97/354/89 98/355/89 90/356/89
f 90/357/90 98/358/90 99/359/90 91/360/90
f 91/361/91 99/362/91 100/363/91 92/364/91
f 92/365/92 100/366/92 101/367/92 93/368/92
f 93/369/93 101/370/93 102/371/93 94/372/93
f 94/373/94 102/374/94 103/375/94 95/376/94
f 95/377/95 103/378/95 104/379/95 96/380/95
f 96/381/96 104/382/96 97/383/96 89/384/96
f 97/385/97 105/386/97 106/387/97 98/388/97
f 98/389/98 106/390/98 107/391/98 99/392/98
f 99/393/99 107/394/99 108/395/99 100/396/99
f 100/397/100 108/398/100 109/399/100 101/400/100
f 101/401/101 109/402/101 110/403/101 102/404/101
f 102/405/102 110/406/102 111/407/102 103/408/102
f 103/409/103 111/410/103 112/411/103 104/412/103
f 104/413/104 112/414/104 105/415/104 97/416/104
f 105/417/105 113/418/105 114/419/105 106/420/105
f 106/421/106 114/422/106 115/423/106 107/424/106
f 107/425/107 115/426/107 116/427/107 108/428/107
f 108/429/108 116/430/108 117/431/108 109/432/108
f 109/433/109 117/434/109 118/435/109 110/436/109
f 110/437/110 118/438/110 119/439/110 111/440/110
f 111/441/111 119/442/111 120/443/111 112/444/111
f 112/445/112 120/446/112 113/447/112 105/448/112
f 113/449/113 121/450/113 122/451/113 114/452/113
f 114/453/114 122/454/114 123/455/114 115/456/114
f 115/457/115 123/458/115 124/459/115 116/460/115
f 116/461/116 124/462/116 125/463/116 117/464/116
f 117/465/117 125/466/117 126/467/117 118/468/117
f 118/469/118 126/470/118 127/471/118 119/472/118
f 119/473/119 127/474/119 128/475/119 120/476/119
f 120/477/120 128/478/120 121/479/120 113/480/120
f 122/481/121 260/482/121 265/483/121 123/484/121
f 123/485/122 265/486/122 261/487/122 124/488/122
f 124/489/123 261/490/123 130/491/123 125/492/123
f 125/493/124 130/494/124 258/495/124 126/496/124
f 126/497/125 258/498/125 131/499/125 127/500/125
f 127/501/126 131/502/126 132/503/126 128/504/126
f 128/505/127 132/506/127 129/507/127 121/508/127
f 133/509/128 134/510/128 135/511/128 136/512/128
f 136/513/129 135/514/129 137/515/129 138/516/129
f 138/517/130 137/518/130 139/519/130 140/520/130
f 140/521/131 139/522/131 141/523/131 142/524/131
f 142/525/132 141/526/132 143/527/132 144/528/132
f 144/529/133 143/530/133 145/531/133 146/532/133
f 146/533/134 145/534/134 147/535/134 148/536/134
f 148/537/135 147/538/135 134/539/135 133/540/135
f 134/541/136 149/542/136 150/543/136 135/544/136
f 135/545/137 150/546/137 151/547/137 137/548/137
f 137/549/138 151/550/138 152/551/138 139/552/138
f 139/553/139 152/554/139 153/555/139 141/556/139
f 141/557/140 153/558/140 154/559/140 143/560/140
f 143/561/141 154/562/141 155/563/141 145/564/141
f 145/565/142 155/566/142 156/567/142 147/568/142
f 147/569/143 156/570/143 149/571/143 134/572/143
f 149/573/144 157/574/144 158/575/144 150/576/144
f 150/577/145 158/578/145 159/579/145 151/580/145
f 151/581/146 159/582/146 160/583/146 152/584/146
f 152/585/147 160/586/147 161/587/147 153/588/147
f 153/589/148 161/590/148 162/591/148 154/592/148
f 154/593/149 162/594/149 163/595/149 155/596/149
f 155/597/150 163/598/150 164/599/150 156/600/150
f 156/601/151 164/602/151 157/603/151 149/604/151
f 157/605/152 165/606/152 166/607/152 158/608/152
f 158/609/153 166/610/153 167/611/153 159/612/153
f 159/613/154 167/614/154 168/615/154 160/616/154
f 160/617/155 168/618/155 169/619/155 161/620/155
f 161/621/156 169/622/156 170/623/156 162/624/156
f 162/625/157 170/626/157 171/627/157 163/628/157
f 163/629/158 171/630/158 172/631/158 164/632/158
f 164/633/159 172/634/159 165/635/159 157/636/159
f 165/637/160 173/638/160 174/639/160 166/640/160
f 166/641/161 174/642/161 175/643/161 167/644/161
f 167/645/162 175/646/162 176/647/162 168/648/162
f 168/649/163 176/650/163 177/651/163 169/652/163
f 169/653/164 177/654/164 178/655/164 170/656/164
f 170/657/165 178/658/165 179/659/165 171/660/165
f 171/661/166 179/662/166 180/663/166 172/664/166
f 172/665/167 180/666/167 173/667/167 165/668/167
f 173/669/168 181/670/168 182/671/168 174/672/168
f 174/673/169 182/674/169 183/675/169 175/676/169
f 175/677/170 183/678/170 184/679/170 176/680/170
f 176/681/171 184/682/171 185/683/171 177/684/171
f 177/685/172 185/686/172 186/687/172 178/688/172
f 178/689/173 186/690/173 187/691/173 179/692/173
f 179/693/174 187/694/174 188/695/174 180/696/174
f 180/697/175 188/698/175 181/699/175 173/700/175
f 181/701/176 189/702/176 190/703/176 182/704/176
f 182/705/177 190/706/177 191/707/177 183/708/177
f 183/709/178 191/710/178 192/711/178 184/712/178
f 184/713/179 192/714/179 193/715/179 185/716/179
f 185/717/180 193/718/180 194/719/180 186/720/180
f 186/721/181 194/722/181 195/723/181 187/724/181
f 187/725/182 195/726/182 196/727/182 188/728/182
f 188/729/183 196/730/183 189/731/183 181/732/183
f 189/733/184 197/734/184 198/735/184 190/736/184
f 190/737/185 198/738/185 199/739/185 191/740/185
f 191/741/186 199/742/186 200/743/186 192/744/186
f 192/745/187 200/746/187 201/747/187 193/748/187
f 193/749/188 201/750/188 202/751/188 194/752/188
f 194/753/189 202/754/189 203/755/189 195/756/189
f 195/757/190 203/758/190 204/759/190 196/760/190
f 196/761/191 204/762/191 197/763/191 189/764/191
f 197/765/192 205/766/192 206/767/192 198/768/192
f 198/769/193 206/770/193 207/771/193 199/772/193
f 199/773/194 207/774/194 208/775/194 200/776/194
f 200/777/195 208/778/195 209/779/195 201/780/195
f 201/781/196 209/782/196 210/783/196 202/784/196
f 202/785/197 210/786/197 211/787/197 203/788/197
f 203/789/198 211/790/198 212/791/198 204/792/198
f 204/793/199 212/794/199 205/795/199 197/796/199
f 205/797/200 213/798/200 214/799/200 206/800/200
f 206/801/201 214/802/201 215/803/201 207/804/201
f 207/805/202 215/806/202 216/807/202 208/808/202
f 208/809/203 216/810/203 217/811/203 209/812/203
f 209/813/204 217/814/204 218/815/204 210/816/204
f 210/817/205 218/818/205 219/819/205 211/820/205
f 211/821/206 219/822/206 220/823/206 212/824/206
f 212/825/207 220/826/207 213/827/207 205/828/207
f 213/829/208 221/830/208 222/831/208 214/832/208
f 214/833/209 222/834/209 223/835/209 215/836/209
f 215/837/210 223/838/210 224/839/210 216/840/210
f 216/841/211 224/842/211 225/843/211 217/844/211
f 217/845/212 225/846/212 226/847/212 218/848/212
f 218/849/213 226/850/213 227/851/213 219/852/213
f 219/853/214 227/854/214 228/855/214 220/856/214
f 220/857/215 228/858/215 221/859/215 213/860/215
f 221/861/216 229/862/216 230/863/216 222/864/216
f 222/865/217 230/866/217 231/867/217 223/868/217
f 223/869/218 231/870/218 232/871/218 224/872/218
f 224/873/219 232/874/219 233/875/219 225/876/219
f 225/877/220 233/878/220 234/879/220 226/880/220
f 226/881/221 234/882/221 235/883/221 227/884/221
f 227/885/222 235/886/222 236/887/222 228/888/222
f 228/889/223 236/890/223 229/891/223 221/892/223
f 229/893/224 237/894/224 238/895/224 230/896/224
f 230/897/225 238/898/225 239/899/225 231/900/225
f 231/901/226 239/902/226 240/903/226 232/904/226
f 232/905/227 240/906/227 241/907/227 233/908/227
f 233/909/228 241/910/228 242/911/228 234/912/228
f 236/913/229 243/914/229 237/915/229 229/916/229
f 237/917/230 244/918/230 245/919/230 238/920/230
f 238/921/231 245/922/231 246/923/231 239/924/231
f 239/925/232 246/926/232 247/927/232 240/928/232
f 240/929/233 247/930/233 248/931/233 241/932/233
f 241/933/234 248/934/234 249/935/234 242/936/234
f 243/937/235 250/938/235 244/939/235 237/940/235
f 244/941/236 251/942/236 252/943/236 245/944/236
f 245/945/237 252/946/237 253/947/237 246/948/237
f 246/949/238 253/950/238 254/951/238 247/952/238
f 247/953/239 254/954/239 255/955/239 248/956/239
f 248/957/240 255/958/240 256/959/240 249/960/240
f 250/961/241 257/962/241 251/963/241 244/964/241
f 251/965/242 130/966/242 258/967/242 252/968/242
f 252/969/243 258/970/243 131/971/243 253/972/243
f 253/973/244 131/974/244 132/975/244 254/976/244
f 254/977/245 132/978/245 259/979/245 255/980/245
f 255/981/246 259/982/246 260/983/246 256/984/246
f 257/985/247 261/986/247 130/987/247 251/988/247
f 234/989/248 242/990/248 262/991/248 235/992/248
f 235/993/249 262/994/249 243/995/249 236/996/249
f 242/997/250 249/998/250 263/999/250 262/1000/250
f 262/1001/251 263/1002/251 250/1003/251 243/1004/251
f 249/1005/252 256/1006/252 264/1007/252 263/1008/252
f 256/1009/253 260/1010/253 265/1011/253 264/1012/253
f 264/1013/254 265/1014/254 261/1015/254 257/1016/254
f 263/1017/255 264/1018/255 257/1019/255 250/1020/255
f 121/1021/256 129/1022/256 260/1023/256 122/1024/256
f 266/1025/257 260/1026/257 129/1027/257
f 266/1028/258 129/1029/258 132/1030/258 131/1031/258
f 258/1032/259 266/1033/259 131/1034/259
f 130/1035/260 266/1036/260 258/1037/260
f 261/1038/261 266/1039/261 130/1040/261
f 261/1041/262 265/1042/262 266/1043/262
f 265/1044/263 260/1045/263 266/1046/263