# Made in Blockbench 5.1.4
mtllib materials.mtl

o cylinder
v 0 0.4999999999999999 -0.5
v 0 0.5000000000000001 0.5
v 0.05177669529663653 0.3749999999999999 -0.5
v 0.05177669529663653 0.3750000000000001 0.5
v 0.125 0.44822330470336297 -0.5
v 0.125 0.4482233047033632 0.5
v 0.125 0.5517766952966368 -0.5
v 0.125 0.551776695296637 0.5
v 0.05177669529663653 0.6249999999999999 -0.5
v 0.05177669529663653 0.6250000000000001 0.5
v -0.05177669529663653 0.6249999999999999 -0.5
v -0.05177669529663653 0.6250000000000001 0.49999999999999994
v -0.125 0.5517766952966369 -0.5
v -0.125 0.5517766952966371 0.5
v -0.125 0.44822330470336297 -0.5
v -0.125 0.4482233047033632 0.5
v -0.05177669529663653 0.3749999999999999 -0.5
v -0.05177669529663653 0.3750000000000001 0.5
vt 0.18382352941176472 0.6659632352941176
vt 0.16228676470588235 0.6875
vt 0.14705882352941177 0.650735294117647
vt 0.2757352941176471 0.7058823529411764
vt 0.3125 0.7058823529411764
vt 0.3125 1
vt 0.2757352941176471 1
vt 0.25419852941176474 0.6139705882352942
vt 0.2757352941176471 0.6355073529411764
vt 0.23897058823529413 0.650735294117647
vt 0.18382352941176472 0.6355073529411764
vt 0.18382352941176472 0.6659632352941176
vt 0.14705882352941177 0.650735294117647
vt 0 0.7058823529411764
vt 0.03676470588235294 0.7058823529411764
vt 0.03676470588235294 1
vt 0 1
vt 0.2757352941176471 0.6355073529411764
vt 0.2757352941176471 0.6659632352941176
vt 0.23897058823529413 0.650735294117647
vt 0.16228676470588235 0.6139705882352942
vt 0.18382352941176472 0.6355073529411764
vt 0.14705882352941177 0.650735294117647
vt 0.22058823529411764 0.7058823529411764
vt 0.2573529411764706 0.7058823529411764
vt 0.2573529411764706 1
vt 0.22058823529411764 1
vt 0.2757352941176471 0.6659632352941176
vt 0.25419852941176474 0.6875
vt 0.23897058823529413 0.650735294117647
vt 0.1318308823529412 0.6139705882352942
vt 0.16228676470588235 0.6139705882352942
vt 0.14705882352941177 0.650735294117647
vt 0.16544117647058823 0.7058823529411764
vt 0.20220588235294118 0.7058823529411764
vt 0.20220588235294118 1
vt 0.16544117647058823 1
vt 0.25419852941176474 0.6875
vt 0.22374264705882355 0.6875
vt 0.23897058823529413 0.650735294117647
vt 0.11029411764705882 0.6355073529411764
vt 0.1318308823529412 0.6139705882352942
vt 0.14705882352941177 0.650735294117647
vt 0 0.3933823529411764
vt 0.03676470588235294 0.3933823529411764
vt 0.03676470588235294 0.6875
vt 0 0.6875
vt 0.22374264705882355 0.6875
vt 0.20220588235294118 0.6659632352941176
vt 0.23897058823529413 0.650735294117647
vt 0.11029411764705882 0.6659632352941176
vt 0.11029411764705882 0.6355073529411764
vt 0.14705882352941177 0.650735294117647
vt 0.05514705882352941 0.7058823529411764
vt 0.09191176470588236 0.7058823529411764
vt 0.09191176470588236 1
vt 0.05514705882352941 1
vt 0.20220588235294118 0.6659632352941176
vt 0.20220588235294118 0.6355073529411764
vt 0.23897058823529413 0.650735294117647
vt 0.1318308823529412 0.6875
vt 0.11029411764705882 0.6659632352941176
vt 0.14705882352941177 0.650735294117647
vt 0.05514705882352941 0.3933823529411764
vt 0.09191176470588236 0.3933823529411764
vt 0.09191176470588236 0.6875
vt 0.05514705882352941 0.6875
vt 0.20220588235294118 0.6355073529411764
vt 0.22374264705882355 0.6139705882352942
vt 0.23897058823529413 0.650735294117647
vt 0.16228676470588235 0.6875
vt 0.1318308823529412 0.6875
vt 0.14705882352941177 0.650735294117647
vt 0.11029411764705882 0.7058823529411764
vt 0.14705882352941177 0.7058823529411764
vt 0.14705882352941177 1
vt 0.11029411764705882 1
vt 0.22374264705882355 0.6139705882352942
vt 0.25419852941176474 0.6139705882352942
vt 0.23897058823529413 0.650735294117647
vn 0 -2.220446049250313e-16 -1
vn 0.7071067811865457 -0.7071067811865493 1.570092458683779e-16
vn 0 2.220446049250313e-16 1
vn 0 -2.220446049250313e-16 -1
vn 1 0 0
vn 0 2.220446049250313e-16 1
vn 0 -2.220446049250313e-16 -1
vn 0.7071067811865459 0.7071067811865492 -1.5700924586837789e-16
vn 0 2.220446049250313e-16 1
vn 0 -2.220446049250313e-16 -1
vn 4.0204732249634243e-16 1 -2.220446049250313e-16
vn 0 2.220446049250313e-16 1
vn 0 -2.220446049250313e-16 -1
vn -0.7071067811865457 0.7071067811865493 -1.570092458683779e-16
vn 0 2.220446049250313e-16 1
vn 0 -2.220446049250313e-16 -1
vn -1 0 0
vn 0 2.220446049250313e-16 1
vn 0 -2.220446049250313e-16 -1
vn -0.7071067811865456 -0.7071067811865496 1.5700924586837796e-16
vn 0 2.220446049250313e-16 1
vn 0 -2.220446049250313e-16 -1
vn -1.3401577416544749e-16 -1 2.220446049250313e-16
vn 0 2.220446049250313e-16 1
usemtl m_e98c1505-e212-3dfa-7aff-2e827df7b9b8
f 5/1/1 3/2/1 1/3/1
f 3/4/2 5/5/2 6/6/2 4/7/2
f 4/8/3 6/9/3 2/10/3
f 7/11/4 5/12/4 1/13/4
f 5/14/5 7/15/5 8/16/5 6/17/5
f 6/18/6 8/19/6 2/20/6
f 9/21/7 7/22/7 1/23/7
f 7/24/8 9/25/8 10/26/8 8/27/8
f 8/28/9 10/29/9 2/30/9
f 11/31/10 9/32/10 1/33/10
f 9/34/11 11/35/11 12/36/11 10/37/11
f 10/38/12 12/39/12 2/40/12
f 13/41/13 11/42/13 1/43/13
f 11/44/14 13/45/14 14/46/14 12/47/14
f 12/48/15 14/49/15 2/50/15
f 15/51/16 13/52/16 1/53/16
f 13/54/17 15/55/17 16/56/17 14/57/17
f 14/58/18 16/59/18 2/60/18
f 17/61/19 15/62/19 1/63/19
f 15/64/20 17/65/20 18/66/20 16/67/20
f 16/68/21 18/69/21 2/70/21
f 3/71/22 17/72/22 1/73/22
f 17/74/23 3/75/23 4/76/23 18/77/23
f 18/78/24 4/79/24 2/80/24